<?xml version="1.0" encoding="UTF-8" standalone="no"?>
<!-- Created with Inkscape (http://www.inkscape.org/) -->

<svg
   width="210mm"
   height="297mm"
   viewBox="0 0 210 297"
   version="1.1"
   id="svg1"
   xmlns="http://www.w3.org/2000/svg"
   xmlns:svg="http://www.w3.org/2000/svg">
  <defs
     id="defs1">
    <clipPath
       clipPathUnits="userSpaceOnUse"
       id="clipPath61">
      <path
         d="M 0,0 H 378 V 576 H 0 Z"
         transform="translate(-254.5645,-296.566)"
         id="path61" />
    </clipPath>
  </defs>
  <g
     id="layer1">
    <path
       id="path18"
       d="m 60.924529,77.133554 -0.0296,0.28434 -0.18451,0.16051 0.0593,0.23495 0.21414,0.10866 0.18097,-0.23284 0.11042,-0.18838 -0.0289,-0.23566 0.133,-0.008 -0.0102,-0.19332 0.1838,-0.17321 0.0286,-0.31468 -0.0593,-0.25153 -0.13124,0.0684 -0.14111,0.14217 0.0261,0.16192 -0.15769,0.17286 z"
       style="fill:#2c737a;fill-opacity:1;fill-rule:nonzero;stroke:#ffffff;stroke-width:0.232481;stroke-linecap:butt;stroke-linejoin:miter;stroke-miterlimit:10;stroke-dasharray:none;stroke-opacity:1" />
    <path
       id="path19"
       d="m 60.326849,69.219264 -0.0536,-0.458612 -0.0893,0.01976 0.0293,0.252237 -0.0187,0.208135 0.11642,0.17251 0.10442,0.0258 0.0681,0.13124 0.0935,-0.18698 -0.0497,-0.0716 -0.0882,0.0501 z"
       style="fill:#2c737a;fill-opacity:1;fill-rule:nonzero;stroke:#ffffff;stroke-width:0.232481;stroke-linecap:butt;stroke-linejoin:miter;stroke-miterlimit:10;stroke-dasharray:none;stroke-opacity:1" />
    <path
       id="path20"
       d="m 59.331909,66.830041 0.072,0.501297 0.21025,0.0018 0.16475,-0.229658 -0.003,-0.359834 -0.20179,-0.136172 -0.0529,-0.161219 -0.23248,-0.151695 0.0427,0.251884 -0.0949,0.136525 z"
       style="fill:#2c737a;fill-opacity:1;fill-rule:nonzero;stroke:#ffffff;stroke-width:0.232481;stroke-linecap:butt;stroke-linejoin:miter;stroke-miterlimit:10;stroke-dasharray:none;stroke-opacity:1" />
    <path
       id="path21"
       d="m 59.793939,67.326505 0.066,0.158044 0.13935,-0.201788 -0.0575,-0.204964 z"
       style="fill:#2c737a;fill-opacity:1;fill-rule:nonzero;stroke:none;stroke-width:0.352778" />
    <path
       id="path22"
       d="m 59.941649,67.078008 -0.14781,0.248356 0.066,0.158044 0.13935,-0.201789 z"
       style="fill:none;stroke:#ffffff;stroke-width:0.232481;stroke-linecap:butt;stroke-linejoin:miter;stroke-miterlimit:10;stroke-dasharray:none;stroke-opacity:1" />
    <path
       id="path23"
       d="m 60.016299,68.119549 0.15734,-0.08608 -0.10231,-0.232833 -0.0508,0.151694 -0.0695,-0.157339 -0.13617,-0.08184 0.16334,-0.0088 -0.0392,-0.149578 -0.19227,0.04057 -0.0423,-0.251883 -0.21555,0.131233 0.0152,0.313267 z"
       style="fill:#2c737a;fill-opacity:1;fill-rule:nonzero;stroke:#ffffff;stroke-width:0.232481;stroke-linecap:butt;stroke-linejoin:miter;stroke-miterlimit:10;stroke-dasharray:none;stroke-opacity:1" />
    <path
       id="path24"
       d="m 60.615319,69.248334 0.12488,-0.141465 -0.21414,-0.09172 z"
       style="fill:#2c737a;fill-opacity:1;fill-rule:nonzero;stroke:none;stroke-width:0.352778" />
    <path
       id="path25"
       d="m 60.740019,69.107151 -0.21378,-0.09243 0.0889,0.233543 z"
       style="fill:none;stroke:#ffffff;stroke-width:0.232481;stroke-linecap:butt;stroke-linejoin:miter;stroke-miterlimit:10;stroke-dasharray:none;stroke-opacity:1" />
    <path
       id="path26"
       d="m 60.231389,70.606064 0.20143,0.31821 0.0765,-0.0194 -0.0903,-0.31715 0.0681,-0.25329 -0.0427,-0.39547 -0.12171,-0.34572 -0.14358,-0.21237 -0.14075,-0.0134 v 0.13229 l 0.13546,0.22649 0.0702,0.32596 0.0427,0.26282 -0.0737,0.1083 z"
       style="fill:#2c737a;fill-opacity:1;fill-rule:nonzero;stroke:#ffffff;stroke-width:0.232481;stroke-linecap:butt;stroke-linejoin:miter;stroke-miterlimit:10;stroke-dasharray:none;stroke-opacity:1" />
    <path
       id="path27"
       d="m 59.833559,68.322892 0.1965,0.07585 0.0723,0.237772 0.1217,0.05186 -0.0332,-0.354895 -0.0829,-0.173919 -0.19649,0.01023 -0.33726,-0.190852 -0.0723,0.03245 0.0388,0.14852 z"
       style="fill:#2c737a;fill-opacity:1;fill-rule:nonzero;stroke:#ffffff;stroke-width:0.232481;stroke-linecap:butt;stroke-linejoin:miter;stroke-miterlimit:10;stroke-dasharray:none;stroke-opacity:1" />
    <path
       id="path28"
       d="m 94.614769,61.57291 0.0127,0.256117 -1.1684,1.848908 -0.43392,0.504119 -0.0427,0.555625 -0.2293,0.214489 -0.30692,0.09066 -0.0699,-0.254 -0.43462,-0.198614 -0.19615,-0.245886 -0.21237,0.159456 -0.38347,0.07479 -0.10689,0.355247 -0.47202,0.50553 -0.16404,0.02505 -0.15275,0.563034 -0.24624,0.528814 -0.29492,-0.02046 -0.20744,0.232127 -0.21519,0.157339 -0.38629,0.334433 0.013,0.258939 0.13935,0.175331 -0.15593,0.138994 0.0512,0.273403 -0.28081,-0.05891 -0.13441,0.207434 -0.48295,-0.02611 -0.29775,-0.09666 0.32879,-0.347839 0.26211,-0.272697 -0.0607,-0.437797 0.17287,-0.193323 0.0702,-0.407811 0.2734,-0.402872 -0.12453,-0.286455 -0.15946,-0.19685 -0.15451,-0.136878 -0.30586,-0.241653 -0.14817,-0.304447 -0.0487,-0.470958 0.13723,-0.289631 -0.14852,-0.323497 0.0505,-0.426509 0.16122,-0.430036 -0.27517,-0.667455 -0.30127,-0.425803 0.16228,0.618067 0.21202,0.153458 0.0974,0.401814 -0.23742,0.188383 0.0448,0.302331 -0.0586,0.313266 -0.0134,0.406048 -0.26741,0.2159 -0.28751,-0.242711 -0.23495,-0.26035 -0.0914,-0.329142 -0.22048,-0.298803 -0.22155,-0.67945 -0.39899,-0.161925 -0.73131,-1.001183 -0.26352,-0.329847 0.0201,-0.759531 0.0116,-0.444147 -0.641,-0.627944 -0.14005,0.138641 -0.48895,-0.194028 0.48895,0.194028 0.5662,0.569031 0.0942,1.106664 0.52317,0.747888 0.17251,0.460023 0.31644,0.311502 0.46638,0.609248 0.0152,0.4826 0.15698,0.240241 0.45967,0.515056 0.39899,0.366183 0.0861,0.447322 -0.19544,0.4064 -0.25999,0.277636 -0.1196,0.263173 -0.12664,0.06032 -0.0473,0.303036 -0.17639,0.132644 -0.71649,0.818444 -0.35525,0.124178 -0.21308,0.143228 -0.23636,-0.144639 -0.15981,0.0095 -0.10089,-0.06703 -0.0914,0.1016 0.26564,0.03881 0.21696,0.183092 0.24553,-0.0032 0.0635,-0.11042 0.23954,-0.02117 0.48048,0.42157 -0.0688,0.218369 -0.19615,-0.229658 -0.3683,0.02928 -0.22754,0.251883 0.0554,0.145344 -0.0709,0.172156 0.0649,0.243769 -0.45579,0.881948 -0.0854,0.0219 -0.11747,0.31856 -0.35631,0.25682 -0.23495,0.52564 -0.24518,0.34784 -0.14252,-0.0378 -0.0487,-0.36725 -0.37677,-0.121 -0.51858,0.0286 -0.60642,-0.072 -0.44697,0.37712 -0.34326,0.21308 -0.24447,0.19967 -0.25753,-0.0579 -0.17145,0.0991 0.0303,0.37747 -0.24342,0.0833 -0.2099,0.39264 -0.65193,0.50483 -0.0702,-0.15734 -0.28258,0.32314 -0.50694,-0.001 -0.40075,0.26177 -0.22119,0.0713 -0.65547,0.0342 -0.31044,0.35418 -0.28258,-7e-4 -0.0674,0.11465 -0.19826,0.14746 -0.0861,0.37677 -0.37923,-0.16016 -0.36654,0.11077 -0.37077,0.34713 -0.51717,0.0885 -0.009,0.12065 -0.30868,0.0448 -0.0324,0.19826 -0.57256,0.22402 -0.37818,0.40781 -0.18062,-0.003 -0.22402,0.248 -0.29315,0.12101 -0.4879,0.32455 -0.32349,0.10936 -0.23742,0.24836 -0.12771,0.38206 -0.20602,0.01 -0.2039,0.24694 -0.38347,0.14182 -0.24377,0.29986 -0.30727,0.0744 -0.0794,0.29245 -0.13265,0.21237 0.19121,0.19685 -0.30445,0.16792 0.0123,0.25259 -0.36407,0.15417 -0.27481,-0.1203 -0.36795,0.0635 -0.48754,0.35489 -0.21025,-0.002 -0.15381,-0.11147 -0.0504,0.18238 -0.38665,0.27446 -0.17744,-0.20108 -0.12559,0.12841 -0.33796,0.0624 -0.20955,0.29492 0.0282,0.22225 -0.15805,0.14253 -0.34431,-0.0106 -0.12347,-0.0991 -0.266,0.03 -0.12982,-0.18521 -0.48754,0.0843 -0.17286,0.38311 -0.38664,0.27482 -0.03,0.28469 -0.66816,0.60466 -0.54258,0.19473 -0.28963,-0.1344 -0.1464,-0.26141 -0.30092,-0.0286 -0.049,-0.20285 -0.0603,-0.0321 -0.27693,-0.72284 -0.054,-0.61419 0.94544,-0.94544 0.55669,-0.44591 -0.39159,-0.72285 0.11148,-0.89111 0.78035,-0.11183 0.38805,-0.55669 0.55739,0.11113 0.28011,-0.77964 0.55351,0.0568 v 0.72284 l 0.39193,0.39194 0.49989,-0.16863 0.16863,0.50271 1.50248,-0.33408 1.50283,-1.83692 -0.16898,-1.00294 0.77999,-0.61102 0.16863,-0.89146 0.88864,-0.78 1.33703,-0.11112 0.77964,-0.66851 0.33443,-0.61172 h 0.89147 l 0.0536,-0.77964 0.72285,-0.50024 0.16862,-0.945444 0.66887,-0.222603 0.054,-2.282472 -0.55739,-0.111478 -0.61101,-0.503061 -0.94544,0.391583 -0.66852,0.668514 -0.72213,0.222956 -0.28081,-1.225903 0.66886,-0.722842 -0.28046,-0.836788 0.33444,-0.945798 0.72566,-0.779991 v -0.99942 l 0.77646,-0.614186 0.72637,-0.11183 0.83397,-1.056922 1.00259,-0.334434 0.44592,-0.945091 0.60183,-0.08431 0.34679,-0.424392 0.69603,0.07514 0.38593,-0.385234 1.61784,0.07796 0.23213,-0.425097 1.0033,0.03951 0.15346,0.424745 h 0.69674 l 0.11394,0.346427 0.77153,-0.346427 0.38558,0.499886 -0.11394,0.53975 1.11795,0.03916 0.34643,-0.271286 1.19627,0.117475 0.46037,0.271639 h 0.54328 l 0.49953,0.692855 0.57926,0.03881 0.34608,-0.424392 0.84984,0.03916 0.34643,0.346427 0.65687,0.03881 0.50024,0.34678 0.57855,0.07832 0.69639,0.229306 0.0363,1.120775 0.87982,0.286102 z"
       style="fill:#bbd1c7;fill-opacity:1;fill-rule:nonzero;stroke:#ffffff;stroke-width:0.154869;stroke-linecap:butt;stroke-linejoin:miter;stroke-miterlimit:10;stroke-dasharray:none;stroke-opacity:1" />
    <path
       id="path29"
       d="m 47.34318,62.27127 0.04163,0.104775 -0.07973,0.100542 0.137583,0.09031 0.126648,-0.106539 0.125588,0.09031 0.11677,-0.06491 -0.09207,-0.151695 -0.161925,-0.100188 z"
       style="fill:#2c737a;fill-opacity:1;fill-rule:nonzero;stroke:none;stroke-width:0.352778" />
    <path
       id="path30"
       d="m 47.442418,62.566791 0.127,-0.106186 0.125589,0.08996 0.116769,-0.06456 -0.09207,-0.151695 -0.161925,-0.100541 -0.214489,0.03739 0.04163,0.104775 -0.07973,0.100542 z"
       style="fill:none;stroke:#ffffff;stroke-width:0.232481;stroke-linecap:butt;stroke-linejoin:miter;stroke-miterlimit:10;stroke-dasharray:none;stroke-opacity:1" />
    <path
       id="path31"
       d="m 47.036793,62.20269 0.125589,0.09031 0.09631,-0.0071 -0.03034,-0.119945 z"
       style="fill:#2c737a;fill-opacity:1;fill-rule:nonzero;stroke:none;stroke-width:0.352778" />
    <path
       id="path32"
       d="m 47.162594,62.292754 0.09631,-0.0067 -0.03069,-0.120297 -0.191206,0.03669 z"
       style="fill:none;stroke:#ffffff;stroke-width:0.232481;stroke-linecap:butt;stroke-linejoin:miter;stroke-miterlimit:10;stroke-dasharray:none;stroke-opacity:1" />
    <path
       id="path33"
       d="m 58.619299,66.322041 -0.10407,-0.141111 -0.11889,-0.02999 -0.0519,-0.05962 -0.0519,0.150284 0.10654,0.110772 0.13935,0.174978 0.13335,-0.01235 0.0522,0.07444 0.20249,-0.0949 -0.16545,-0.158044 z"
       style="fill:#2c737a;fill-opacity:1;fill-rule:nonzero;stroke:#ffffff;stroke-width:0.232481;stroke-linecap:butt;stroke-linejoin:miter;stroke-miterlimit:10;stroke-dasharray:none;stroke-opacity:1" />
    <path
       id="path34"
       d="m 59.077659,66.558049 0.1517,-0.02046 -0.0279,-0.139347 -0.22437,-0.103364 -0.11465,-0.126295 -0.19085,-0.111477 -0.0141,0.145697 0.12453,0.07973 0.0949,0.09172 0.18908,0.07373 z"
       style="fill:#2c737a;fill-opacity:1;fill-rule:nonzero;stroke:#ffffff;stroke-width:0.232481;stroke-linecap:butt;stroke-linejoin:miter;stroke-miterlimit:10;stroke-dasharray:none;stroke-opacity:1" />
    <path
       id="path35"
       d="m 56.194449,64.778885 -0.41346,0.09525 0.0797,0.08678 0.14852,-0.03845 -0.01,0.07373 0.19473,0.04974 -0.007,-0.103364 0.18733,0.09349 0.16227,-0.02293 -0.085,-0.14358 -0.10759,-0.09948 z"
       style="fill:#2c737a;fill-opacity:1;fill-rule:nonzero;stroke:none;stroke-width:0.352778" />
    <path
       id="path36"
       d="m 56.536599,65.013129 -0.085,-0.143581 -0.10759,-0.09948 -0.14958,0.0088 -0.41346,0.09525 0.0797,0.08678 0.14888,-0.03845 -0.0106,0.07408 0.19508,0.04939 -0.007,-0.103364 0.18697,0.09349 z"
       style="fill:none;stroke:#ffffff;stroke-width:0.232481;stroke-linecap:butt;stroke-linejoin:miter;stroke-miterlimit:10;stroke-dasharray:none;stroke-opacity:1" />
    <path
       id="path37"
       d="m 54.278333,64.925888 -0.143228,0.09807 0.02011,0.08996 0.220838,-0.07161 0.151342,0.03493 0.176036,-0.02399 -0.04939,-0.07126 -0.133702,-0.0085 -0.0628,-0.07126 z"
       style="fill:#2c737a;fill-opacity:1;fill-rule:nonzero;stroke:none;stroke-width:0.352778" />
    <path
       id="path38"
       d="m 54.457509,64.902533 -0.179211,0.02328 -0.142875,0.09843 0.01975,0.08961 0.220839,-0.07161 0.151342,0.03492 0.176389,-0.02364 -0.04974,-0.07161 -0.133703,-0.0085 z"
       style="fill:none;stroke:#ffffff;stroke-width:0.232481;stroke-linecap:butt;stroke-linejoin:miter;stroke-miterlimit:10;stroke-dasharray:none;stroke-opacity:1" />
    <path
       id="path39"
       d="m 77.787619,33.115563 0.042,0.116064 0.2219,0.04269 0.0265,-0.12065 -0.13194,-0.08361 z"
       style="fill:#144953;fill-opacity:1;fill-rule:nonzero;stroke:none;stroke-width:0.352778" />
    <path
       id="path40"
       d="m 77.829559,33.231839 0.2219,0.04233 0.0261,-0.12065 -0.13158,-0.08326 -0.1584,0.04551 z"
       style="fill:none;stroke:#ffffff;stroke-width:0.232481;stroke-linecap:butt;stroke-linejoin:miter;stroke-miterlimit:10;stroke-dasharray:none;stroke-opacity:1" />
    <path
       id="path41"
       d="m 86.216819,50.969469 0.16969,0.1143 0.0194,0.197908 0.0825,0.08925 0.002,0.225778 0.24095,0.107244 0.0882,-0.110419 -0.1771,-0.193322 -0.1016,-0.26282 -0.10195,-0.141816 -0.0501,-0.118181 -0.14605,0.0011 z"
       style="fill:#8cc3e1;fill-opacity:1;fill-rule:nonzero;stroke:#ffffff;stroke-width:0.232481;stroke-linecap:butt;stroke-linejoin:miter;stroke-miterlimit:10;stroke-dasharray:none;stroke-opacity:1" />
    <path
       id="path42"
       d="m 79.892429,18.026728 0.17181,-0.142875 0.0222,-0.121356 0.22295,-0.01305 0.12735,0.113947 0.26635,-0.02999 0.007,-0.165453 -0.27128,-0.02822 -0.17145,-0.125589 -0.21626,0.101247 -0.25858,-0.03069 0.0109,0.193323 -0.0639,0.182386 z"
       style="fill:#3eacd1;fill-opacity:1;fill-rule:nonzero;stroke:#ffffff;stroke-width:0.289278;stroke-linecap:butt;stroke-linejoin:miter;stroke-miterlimit:10;stroke-dasharray:none;stroke-opacity:1" />
    <path
       id="path43"
       d="m 81.789889,18.087124 0.15275,0.348897 0.38594,0.279047 0.24024,-0.04445 -0.22895,-0.3302 7e-4,-0.239183 0.17639,-0.09913 0.0459,-0.210962 -0.29386,-0.192263 -0.35737,0.0032 -0.18626,0.100541 0.19896,0.137584 z"
       style="fill:#3eacd1;fill-opacity:1;fill-rule:nonzero;stroke:#ffffff;stroke-width:0.289278;stroke-linecap:butt;stroke-linejoin:miter;stroke-miterlimit:10;stroke-dasharray:none;stroke-opacity:1" />
    <path
       id="path44"
       d="m 87.300629,11.062861 -0.0885,-0.03422 -0.10795,0.30868 -0.0759,-0.234244 -0.26529,0.04304 0.18062,-0.263173 0.24271,0.06138 0.0194,-0.194381 -0.42192,-0.05151 -0.2032,-0.201437 0.17004,-0.5277555 0.12982,0.0088 0.14287,0.5535095 0.091,-0.01658 -0.0385,-0.470605 -0.23001,-0.3799425 -0.46884,-0.243417 -0.28822,0.08819 -0.28222,-0.06914 0.0413,0.48895 0.0201,0.3728865 0.0593,0.427567 -0.13758,0.06562 -0.17286,0.412397 -0.31398,0.14605 -0.21554,0.472369 0.0741,0.766938 0.28186,0.28575 0.0434,-0.233539 0.30092,-0.225072 0.12489,-0.239536 0.35419,-0.01976 0.0928,-0.202494 0.11641,-0.178857 0.24377,-0.09278 -0.0695,-0.160514 0.19332,-0.01094 -0.0487,0.359481 0.009,0.284338 0.15911,0.01235 0.14181,-0.365124 0.22825,-0.415925 z"
       style="fill:#3eacd1;fill-opacity:1;fill-rule:nonzero;stroke:#ffffff;stroke-width:0.289278;stroke-linecap:butt;stroke-linejoin:miter;stroke-miterlimit:10;stroke-dasharray:none;stroke-opacity:1" />
    <path
       id="path45"
       d="m 86.740349,12.892083 -0.10302,0.273756 -0.59266,0.390525 -0.23954,-0.06103 -0.10936,0.199319 -0.29316,0.09031 0.26,-0.446264 -0.0702,-0.189442 -0.17216,-0.140406 -1.01,-0.06103 -0.19438,0.156986 -0.21625,0.315383 -0.40323,0.329495 -0.13511,0.358069 -0.17992,0.331611 0.1203,0.490361 0.32844,-0.07549 0.15275,-0.147461 0.078,0.133703 -0.34184,0.4445 -0.0353,0.404636 0.32632,-0.301978 0.1337,-0.28575 0.49353,0.296333 0.29916,-0.20955 0.0564,0.174978 -0.20885,0.04233 -0.18661,0.352425 -0.51471,-0.08784 -0.43921,0.577497 0.0624,0.06597 -0.13934,0.0078 -0.25541,0.207434 -0.0519,0.13723 -0.22472,-0.0314 0.0349,-0.136525 0.091,0.02469 0.15134,-0.23248 -0.24271,-0.07585 -0.20285,-0.167922 -0.0822,0.123119 0.0582,0.221544 -0.12382,0.171098 -0.13688,0.0067 0.0194,-0.195791 -0.20073,-0.122767 -0.1651,0.232833 0.17921,0.258939 -0.11077,0.155575 0.11218,0.142875 -0.0632,0.197203 0.18944,-0.02505 0.10125,-0.06526 0.0804,0.115005 -0.1136,0.07973 0.0219,0.134056 0.13829,0.0515 -0.0406,0.07655 -0.11289,0.110772 0.10689,0.08326 0.20109,0.12453 0.25118,-0.07444 0.009,0.162984 0.19402,0.0046 0.10619,-0.184503 0.38065,-0.170392 0.22472,-0.250119 -0.24236,-0.329495 0.16157,-0.05433 -0.25329,-0.269523 0.15204,-0.232833 0.1009,0.105833 0.27375,-0.05045 0.17392,0.01411 -0.26246,0.557742 0.0794,0.0702 0.51964,-0.282222 0.078,-0.243417 0.34537,-0.227542 0.19579,-0.204258 0.32349,-0.375356 0.19015,-0.471311 0.31644,-0.361597 0.17569,-0.506589 0.18838,-0.183091 0.0561,-0.419453 0.19756,-0.147814 0.079,-0.492831 0.11641,-0.263172 -0.0596,-0.264583 z"
       style="fill:#3eacd1;fill-opacity:1;fill-rule:nonzero;stroke:#ffffff;stroke-width:0.289278;stroke-linecap:butt;stroke-linejoin:miter;stroke-miterlimit:10;stroke-dasharray:none;stroke-opacity:1" />
    <path
       id="path46"
       d="m 57.896319,10.703062 0.12347,-0.07444 0.19756,0.01517 0.30162,0.268464 0.12947,0.287867 0.17286,-0.0011 0.12559,-0.136173 -0.27305,-0.263525 -0.14711,-0.191205 -0.4258,-0.135114 -0.36618,-0.159808 -0.10795,0.112183 0.24024,0.119944 z"
       style="fill:#3eacd1;fill-opacity:1;fill-rule:nonzero;stroke:#ffffff;stroke-width:0.289278;stroke-linecap:butt;stroke-linejoin:miter;stroke-miterlimit:10;stroke-dasharray:none;stroke-opacity:1" />
    <path
       id="path47"
       d="m 82.571319,18.189288 -0.0914,-0.306917 -0.22084,-0.197202 -0.24518,-0.150989 0.0582,-0.315736 -0.21413,-0.376061 -0.26071,-0.08996 -0.32385,0.07655 -0.19791,0.14605 -0.2801,-0.178153 -0.0219,-0.200378 0.53022,-0.03704 0.51753,-0.07373 0.24518,-0.416278 -0.25718,-0.104069 0.1136,-0.349603 -0.24765,-0.20955 -0.12136,-0.306916 -0.92498,-0.02434 -0.2734,0.179917 -0.33056,0.0021 -0.43532,0.232834 -0.82762,0.07549 -0.33373,0.182033 -0.24094,0.251178 -0.12383,-0.09772 -0.4445,0.06985 -0.34396,0.25788 -0.002,-0.26423 -0.2727,-0.139348 -0.0903,-0.277283 0.58385,-0.0028 0.28434,-0.254 0.34643,-0.182739 0.16263,-0.307622 0.29633,-0.01623 0.19191,0.228247 0.17957,-0.278341 -0.37359,-0.277284 -0.63994,0.0056 -0.27164,0.237772 -0.26564,0.0441 -0.27976,-0.163689 -1.03681,0.1016 -0.41804,0.246945 -0.38629,0.02117 -0.47837,0.234598 -0.40181,0.0515 -0.6223,0.58667 -0.56727,0.269169 -0.45614,0.397228 -0.4572,0.08502 -0.39758,0.334786 -0.6791,0.679097 -0.74824,0.801512 -0.82339,0.46108 -0.54504,0.149225 -0.54257,-0.0187 -0.8643,0.409222 -0.008,0.13335 0.24271,0.07655 -0.26459,0.328083 -0.47166,0.179564 -0.25894,-0.169333 -0.13652,-0.26035 0.30056,-0.271286 0.34325,-0.03775 0.13688,-0.151694 -0.55703,-0.344311 -0.26776,-0.348897 -0.29069,-0.07091 -0.24342,-0.621947 -0.13476,-0.589139 0.0921,-0.766586 -0.2734,-0.62618 -0.12524,-0.410634 -0.32949,-0.802216 -0.26529,-0.223661 -0.0596,-0.264936 -0.45896,-0.511528 -0.3041,-0.08043 -0.22542,-0.245886 -0.23495,-0.312914 -0.28011,-0.0049 -0.87348,-0.349603 -0.99236,0.05433 -0.38135,-0.118181 -0.35948,0.01905 -0.2847,-0.123472 -0.19261,0.111125 -0.42157,-0.11677 -0.51612,0.02752 -0.4572,-0.730249 -0.25364,0.09419 -0.29528,-0.321381 -0.83044,-0.272697 -0.53657,0.0095 -0.4258,-0.136172 -0.3743,-0.298097 -0.53834,-0.03069 -0.533047,-0.347133 -0.371122,-0.199673 -0.236714,-0.7217835 0.358069,-0.336903 -0.01129,-0.219075 -0.523875,-0.09031 -0.233892,0.07197 -0.361244,-0.08008 -0.647348,0.155928 -0.492477,0.0314 -0.403225,0.334786 -0.259292,0.528814 -0.837142,0.1284115 0.08608,0.609953 -0.390172,0.222956 -0.33267,0.611364 -0.779991,0.612774 -0.111478,0.83573 -0.612775,0.611011 0.167217,1.057981 h 0.724253 l 0.33408,0.667455 0.667103,0.222956 -0.167217,1.1684 0.779992,-0.4445 0.668514,0.333022 1.168752,0.278694 -0.11183,1.002595 0.667808,-0.167217 0.947914,0.278694 0.05398,0.889706 -1.279878,0.222603 -0.277989,0.557389 0.445559,0.500944 0.7239,0.167569 0.27693,0.499887 -0.388408,1.002594 0.111478,1.168753 -0.502709,0.501297 -0.388761,1.223786 -1.391355,0.05574 -0.334081,-0.778228 -1.002594,-0.668514 -1.279878,0.889706 -0.945444,-0.05574 -0.222603,-0.611011 -1.114425,0.222602 -0.361244,0.458259 v 0.836083 l 0.375708,0.249767 v 0.833966 l -0.625828,0.210256 -0.83573,0.375708 -0.04092,1.209322 h 0.457906 l 0.334786,-0.33408 0.626886,0.375355 0.291395,1.08585 0.375708,0.501298 0.04092,0.918633 0.668867,0.542925 0.668514,-0.25012 0.66675,0.25012 0.751416,-0.04128 0.334433,0.291041 0.794103,0.04304 0.918633,0.375709 0.0829,0.751064 0.416984,0.334433 0.542572,-0.251884 0.292805,-0.666749 -0.459669,-0.668162 0.208139,-0.542925 -0.375709,-0.334433 -0.04092,-0.542925 -0.376061,-0.33408 -0.291042,-0.833967 0.667103,-0.668867 -0.291747,-0.499533 0.417336,-0.542925 0.708025,0.375708 0.420511,0.66675 0.916867,0.209903 0.91687,0.584553 0.66816,0.542925 0.62724,0.04163 0.79269,-0.584553 0.0829,-0.668161 0.50306,-0.417336 0.91652,-0.04304 0.62724,0.460375 0.71014,0.125589 0.62724,0.333727 0.49953,-0.667808 0.62724,-0.04163 0.49989,0.458259 0.87524,0.208491 0.50341,-0.542925 h 0.91688 l 0.75106,-0.66675 0.50306,-0.292805 0.37536,0.375708 -0.2099,0.416984 0.12382,0.418747 0.79622,-0.251884 0.33443,0.542925 h 0.58244 l 0.58561,0.460375 h 0.66852 l 0.66533,0.334081 1.12678,-0.08431 0.33443,-0.2921 0.66851,-0.08361 0.21026,0.416983 0.66851,-0.08255 0.62371,0.249414 0.52423,-0.416631 0.45826,-0.396522 0.66851,-0.04127 0.39617,-0.396875 0.45826,0.229658 0.71014,-0.0635 0.23072,-0.354894 0.32068,-0.192969 0.65828,-0.134761 -0.0399,-0.121709 0.0307,-0.271639 -0.13441,-0.02187 -0.12947,0.111831 -0.22825,0.131586 -0.12806,-0.111831 -0.18203,-0.05009 0.13935,-0.202495 0.19156,-0.05468 0.15451,0.125941 0.20179,-0.144638 0.27729,-0.07479 -0.0452,-0.325261 0.21378,-0.176389 -0.0885,-0.233539 0.19438,-0.249414 0.018,-0.239183 0.28187,-0.02999 -0.0727,0.554919 0.002,0.5969 -0.14252,0.11183 0.0191,0.341489 0.29069,-0.358069 -0.0466,-0.623358 0.14428,-0.352073 0.0201,-0.716491 0.079,-0.03528 0.0328,-0.324908 0.20038,-0.349956 -0.0205,-0.244475 0.12382,-0.440267 0.0931,-0.481894 -0.15275,-0.06632 -0.0935,0.467078 -0.20073,0.160513 -0.16051,-0.198966 0.28222,-0.299508 -0.12277,-0.350662 0.22261,-0.296333 -0.24272,-0.0762 -0.13864,0.216958 -0.13405,-0.276577 0.26634,-0.565503 -0.25823,-0.389114 0.0444,-0.281164 0.32138,-0.125941 0.0138,-0.254353 0.34537,-0.227542 0.23848,-0.325967 0.14605,-0.0088 -0.24518,0.599017 0.11395,0.0049 0.62547,-1.222375 0.47025,-0.836084 -0.0526,-0.159808 -0.32561,0.5842 -0.20567,0.02575 -0.0346,-0.295981 0.20144,-0.160514 -0.31327,-0.250472 0.0674,-0.168628 -0.72919,-0.227541 -0.15381,-0.111125 0.10089,-0.334081 0.2346,0.211667 0.41769,0.02152 0.22895,0.330553 0.27693,0.1778 0.25365,7.06e-4 -0.1196,-0.26035 0.33091,0.01094 -0.11747,0.34925 0.079,0.07055 0.58949,-0.673805 -0.0794,-0.0702 z"
       style="fill:#3eacd1;fill-opacity:1;fill-rule:nonzero;stroke:#ffffff;stroke-width:0.289278;stroke-linecap:butt;stroke-linejoin:miter;stroke-miterlimit:10;stroke-dasharray:none;stroke-opacity:1" />
    <path
       id="path48"
       d="m 79.129449,28.844482 -0.17463,0.0695 -0.19826,0.234597 0.0116,0.222956 -0.061,0.240594 -0.14393,0.08361 -0.12277,0.200025 0.19403,0.0042 0.22507,-0.221544 0.0755,-0.316442 0.18803,-0.32385 0.25929,-0.208139 0.10619,-0.198967 -0.1771,-0.0053 z"
       style="fill:#144953;fill-opacity:1;fill-rule:nonzero;stroke:#ffffff;stroke-width:0.289278;stroke-linecap:butt;stroke-linejoin:miter;stroke-miterlimit:10;stroke-dasharray:none;stroke-opacity:1" />
    <path
       id="path49"
       d="m 79.802439,28.375428 0.10654,-0.273756 0.001,-0.253647 0.10195,-0.03669 -0.0815,-0.39758 -0.11253,0.110772 -0.007,0.432153 -0.0804,0.168628 -0.22508,0.236713 0.01,0.1778 z"
       style="fill:#144953;fill-opacity:1;fill-rule:nonzero;stroke:#ffffff;stroke-width:0.289278;stroke-linecap:butt;stroke-linejoin:miter;stroke-miterlimit:10;stroke-dasharray:none;stroke-opacity:1" />
    <path
       id="path50"
       d="m 78.316399,31.691822 -0.0677,-0.294922 -0.003,-0.436386 -0.1016,-0.06491 -0.0903,0.193675 -0.0229,0.280811 -0.12559,0.12453 -0.0346,0.241653 0.0744,0.113947 0.23989,0.0078 z"
       style="fill:#144953;fill-opacity:1;fill-rule:nonzero;stroke:#ffffff;stroke-width:0.289278;stroke-linecap:butt;stroke-linejoin:miter;stroke-miterlimit:10;stroke-dasharray:none;stroke-opacity:1" />
    <path
       id="path51"
       d="m 76.712639,33.628926 0.01,0.168275 0.14675,7.06e-4 0.0511,-0.131939 0.25118,0.0071 0.2219,-0.130528 0.002,-0.130527 0.1337,-0.07691 -0.066,-0.166158 -0.48542,0.226483 z"
       style="fill:#144953;fill-opacity:1;fill-rule:nonzero;stroke:#ffffff;stroke-width:0.289278;stroke-linecap:butt;stroke-linejoin:miter;stroke-miterlimit:10;stroke-dasharray:none;stroke-opacity:1" />
    <path
       id="path52"
       d="m 79.056879,33.787888 0.21625,-0.02152 0.11783,-0.05574 0.16757,0.189089 0.15804,-0.0575 -0.0822,-0.234245 -0.21237,-0.05856 -0.12629,0.106186 -0.0113,-0.218016 -0.27517,-0.311856 -0.133,-0.271992 -0.43709,-0.364419 -0.40675,0.0035 -0.0769,0.09278 0.097,0.104775 0.20637,-0.02081 -0.0935,0.09349 0.0324,0.06879 0.30057,0.0025 0.26635,0.1651 -0.0289,0.21978 0.19226,0.05997 0.12065,0.192264 -0.0416,0.141464 z"
       style="fill:#144953;fill-opacity:1;fill-rule:nonzero;stroke:#ffffff;stroke-width:0.289278;stroke-linecap:butt;stroke-linejoin:miter;stroke-miterlimit:10;stroke-dasharray:none;stroke-opacity:1" />
    <path
       id="path53"
       d="m 80.939549,33.715498 -0.27446,0.07479 -0.42757,-0.01729 -0.375,0.05045 -0.0215,0.140758 0.003,0.268464 -0.21696,0.179917 -0.375,0.06032 -0.18063,0.348897 -0.22683,-0.0187 0.15381,-0.255764 -0.0314,-0.253647 -0.19438,-0.430389 -0.0716,-0.224367 -0.65546,0.04586 -0.19721,0.169334 -0.14922,0.02893 -0.11889,0.214137 -0.14569,-0.151342 -0.3355,0.01411 -0.35136,0.283986 -0.27975,0.172861 -0.0145,0.285045 -0.22719,0.03669 -0.15346,0.153458 -0.86113,0.02117 0.0194,0.16757 -0.24483,-0.125589 0.29704,-0.355247 -0.0215,-0.782814 -0.19897,0.03034 -0.61418,0.361244 -0.20285,-0.06738 -0.0677,-0.13582 -0.21131,-0.0092 -0.0822,0.124883 0.0159,0.248003 -0.22684,0.01094 -0.41663,0.262467 -0.0568,-0.176036 0.2032,-0.100895 0.17568,-0.02999 -0.0236,-0.09737 -0.5334,-0.268817 -0.75918,0.131233 -0.43638,0.202495 -0.25612,0.193322 -0.32455,0.06667 -0.56903,0.498122 -0.34467,0.248003 -0.34678,0.366183 -0.45473,0.06491 -0.22754,0.161925 -0.0504,0.350309 -0.11994,0.194733 -0.0684,0.370064 -0.33444,0.288572 -0.34713,0.536575 -0.1644,0.793397 -0.40146,0.31997 -0.76235,0.786694 -0.3182,0.317147 -0.40429,0.07161 -0.43533,0.410986 -0.55597,0.04057 0.44167,-0.147461 0.49918,-0.400756 0.35243,-0.124883 0.75283,-0.666397 0.0624,-0.212373 0.55845,-0.402519 0.14922,-0.575733 0.27517,-0.417337 0.25611,-0.476602 -0.18238,-0.06491 -0.28611,0.22613 -1.04316,0.01129 -0.72178,0.158397 0.19403,-0.26423 -0.22437,-0.01658 -0.43427,0.24765 -0.32526,0.04692 -0.44838,0.502002 -0.45332,3.53e-4 -0.27729,-0.258586 -0.34395,-0.2794 -0.41628,0.0078 0.23177,-0.131586 0.53975,0.07408 0.12171,0.30727 0.24554,0.149225 0.3302,-0.0021 0.30585,-0.389467 0.45438,-0.15875 0.55986,-0.389113 0.2734,0.09031 0.0131,0.265994 0.21096,0.01905 1.12007,-0.20955 0.055,0.144992 0.38594,-0.304447 0.24448,-0.429684 0.20567,-0.577497 0.38452,-0.06632 0.58738,-0.181328 0.57009,-0.463197 0.60677,-0.644878 0.31292,-0.01764 0.48895,-0.309739 0.45014,-0.188383 0.32526,-0.315736 0.2279,0.01693 0.23883,-0.207786 0.629,-0.243064 0.29916,-0.01587 0.28857,-0.417689 0.19085,-0.05503 0.3362,-0.39123 0.20532,-0.04057 -0.0258,-0.252941 0.17497,-0.05468 0.0677,0.130881 1.14159,-1.166284 0.14888,-0.320675 -0.28364,3.53e-4 0.28787,-0.149578 0.13935,0.08255 0.14146,-0.157339 -0.0684,-0.13088 0.34149,-0.331258 0.502,-0.593725 0.44062,-0.188031 0.17533,-0.293511 0.36795,-0.100189 0.39017,0.01446 0.13476,-0.231775 0.13159,-0.05186 -0.0113,-0.208139 0.0744,-0.564797 -0.65793,0.134408 -0.32103,0.192969 -0.23072,0.355247 -0.70979,0.0635 -0.45861,-0.230011 -0.39617,0.396875 -0.66816,0.04163 -0.45861,0.39617 -0.52423,0.416983 -0.62336,-0.249767 -0.66851,0.0829 -0.21025,-0.416983 -0.66887,0.08361 -0.33408,0.291747 -1.12713,0.08467 -0.66498,-0.334081 h -0.66888 l -0.58562,-0.460392 h -0.58208 l -0.33443,-0.542925 -0.79622,0.251884 -0.12418,-0.418747 0.21026,-0.417337 -0.37571,-0.375708 -0.50306,0.293158 -0.75107,0.66675 h -0.91687 l -0.50306,0.542925 -0.87524,-0.208844 -0.50024,-0.457906 -0.62688,0.04127 -0.49989,0.667809 -0.62689,-0.333375 -0.71014,-0.125942 -0.62759,-0.460022 -0.91652,0.04304 -0.5027,0.416983 -0.0833,0.668514 -0.79234,0.584553 -0.62724,-0.04163 -0.66852,-0.542925 -0.91687,-0.584906 -0.916512,-0.20955 -0.420511,-0.66675 -0.708378,-0.375708 -0.416983,0.542925 0.291394,0.499533 -0.66675,0.668514 0.290689,0.83432 0.376061,0.33408 0.04127,0.542925 0.375709,0.334081 -0.208492,0.542925 0.460022,0.668514 -0.293158,0.66675 -0.542572,0.251883 -0.416984,-0.334433 -0.08255,-0.751064 -0.918633,-0.375709 -0.794455,-0.04304 -0.334434,-0.291394 -0.751064,0.04128 -0.66675,-0.249767 -0.668866,0.249767 v 0.710142 l 0.375708,0.501297 -0.751416,0.625475 -0.04128,1.085497 -0.959556,0.542925 -0.627239,0.501297 0.542572,0.709789 0.5842,0.458611 -0.458258,0.542925 0.04127,0.583847 -0.83573,0.251178 -0.08255,1.169106 -1.628423,0.08255 -0.417336,0.627238 0.126295,1.335617 -0.794456,0.457906 -0.08326,0.877358 -0.709789,0.542572 -0.416631,-0.249414 -0.125941,-0.334433 -0.458259,-0.0829 -0.210255,-0.877005 -0.667103,0.08255 -0.292806,0.460022 -0.625475,0.124177 -0.668513,0.627592 0.668513,0.876653 -0.418394,0.709789 -1.251303,0.375355 -0.208491,0.960261 -1.170164,-0.33408 -0.375356,-0.709789 -0.625827,0.208139 -0.125589,0.710141 0.5842,0.292806 -0.25012,0.709436 0.918281,0.08326 0.584552,0.334433 -0.208844,1.042105 -0.709436,0.543278 0.208139,0.877006 0.627239,0.542925 0.416983,1.669697 0.877006,0.166864 0.264583,-0.792692 0.945444,-0.111831 0.222603,-0.723899 0.724253,-0.50165 1.279877,0.50165 0.334434,0.891469 0.500944,0.444147 0.333022,-0.499886 1.22555,0.66675 v 0.557036 l 0.722489,0.16757 0.947209,-0.390173 0.722841,0.445911 1.114072,0.05539 0.889706,-0.334081 1.50248,0.111125 0.557389,0.836083 0.835731,0.167217 1.001183,0.777875 0.946855,0.167569 -0.167922,0.945445 -1.113366,0.836789 0.557388,0.611716 0.777875,0.334434 0.445912,0.722841 0.503061,-0.611716 0.611006,-0.0575 0.66887,-0.668514 0.94509,-0.165453 0.44591,-0.833967 0.83397,-0.445558 0.22296,-0.726016 1.1684,-0.443795 0.66851,-0.834319 1.27952,-0.668867 1.39136,-0.05539 1.00295,-0.833967 0.77999,-0.446264 0.72249,0.557742 h 0.61136 l 0.55704,-0.947208 0.89147,-0.557389 v -1.1684 l 1.05657,-0.668161 0.16898,-0.528461 h 0.33443 l 0.33126,-0.50165 0.66816,-0.04127 0.21026,-0.458258 -0.6276,-0.334434 -0.25082,-0.625827 0.29245,-0.585612 0.66887,-0.04127 0.12382,-0.334433 0.75142,-0.166864 0.21026,-0.792691 0.58561,-0.249767 0.70978,-0.709789 0.33091,-0.836083 0.50341,-0.167217 0.0825,-0.5842 0.33408,-0.33408 h 1.29258 l 0.9204,-1.127125 0.45791,-0.416631 v -0.5842 l 0.37606,-0.50165 1.16804,-0.08255 0.96168,-0.91828 0.12417,-0.542925 0.37536,-0.584553 v -0.87667 l 0.66887,-0.627591 0.26105,-0.548217 z"
       style="fill:#144953;fill-opacity:1;fill-rule:nonzero;stroke:#ffffff;stroke-width:0.289278;stroke-linecap:butt;stroke-linejoin:miter;stroke-miterlimit:10;stroke-dasharray:none;stroke-opacity:1" />
    <path
       id="path54"
       d="m 87.450909,54.036273 -0.1076,0.299156 0.0579,0.335491 0.29598,-0.07055 0.0628,-0.315031 -0.12311,-0.284692 z"
       style="fill:#8cc3e1;fill-opacity:1;fill-rule:nonzero;stroke:#ffffff;stroke-width:0.232481;stroke-linecap:butt;stroke-linejoin:miter;stroke-miterlimit:10;stroke-dasharray:none;stroke-opacity:1" />
    <path
       id="path55"
       d="m 101.41576,57.685618 -0.0628,-0.475897 -0.26106,-0.04092 -0.43956,-0.325262 -0.33337,0.0702 -0.417341,0.0053 -0.38241,-0.235656 -0.48825,0.154517 -0.44555,-0.398286 -0.70768,-0.124883 -0.22542,-0.162984 -0.49706,0.05256 -0.42404,-0.05115 -0.44768,0.104423 -0.15593,0.199319 -0.109,0.528814 0.0903,0.288219 -0.29457,-0.0018 0.0487,-0.479777 -0.22966,-0.137231 0.15381,-0.192969 -0.58455,-0.297392 -0.34185,0.516467 0.0953,0.397933 -0.0628,0.189794 -0.2226,-0.34043 -0.0568,-0.418747 -0.17992,0.08326 -0.0564,0.352778 -0.18979,-0.154164 0.18344,-0.342194 0.26917,-0.08961 -0.20637,-0.42933 -0.24448,-0.113595 -0.32632,0.33902 -0.0903,-0.242006 0.0956,-0.208492 -0.24518,-0.117475 -0.34431,-0.221897 -0.1397,-0.19438 -0.41204,-0.105481 -0.46673,0.15487 -0.37641,-0.163337 -0.38171,0.131939 -0.53516,-0.0088 -0.32456,0.129469 -0.38593,0.02081 -0.2279,-0.265641 -0.23918,0.06526 -0.0825,-0.164041 -0.6096,0.140053 -0.43462,0.01517 -0.42792,-0.104069 -0.17075,-0.06315 -0.24835,0.12312 -0.0191,0.333022 -0.45862,0.02364 -0.10724,-0.581378 0.0176,-0.371475 -0.0928,-0.373944 0.091,-0.331964 0.26705,-0.183444 0.17251,0.07056 0.16228,-0.127705 0.0494,-0.202142 0.0321,-0.121356 0.0624,-0.300566 -0.26529,-0.31362 -0.11395,-0.41663 -0.20284,-0.312561 -0.35137,-0.03104 -0.0921,0.125589 -0.0797,0.371475 0.0646,0.226836 0.0335,0.08643 0.14499,0.147461 -0.0801,0.116769 -0.17533,-0.20708 -0.24448,-0.177447 -0.31538,0.0381 -0.0886,-0.134762 -0.0116,-0.41663 -0.0423,-0.237067 0.0198,-0.555977 -0.0596,-0.354895 0.0201,-0.35948 -0.133,-0.260703 -0.11218,-0.422981 -0.44273,-0.422275 -0.22367,-0.106891 -0.3048,0.254705 -0.14181,-0.05115 0.0208,-0.160866 -0.28716,-0.19297 0.27305,-0.103364 0.24694,-0.172508 0.10795,-0.244475 -0.12206,-0.22225 -0.0762,-0.264583 0.2921,0.05327 0.25541,0.125236 0.0617,0.23495 0.10548,0.242711 0.28646,0.164395 -0.007,0.267758 0.0621,0.236361 0.19614,0.07761 0.1464,-0.195438 -0.14605,-0.161573 -0.15028,-0.369711 -0.28187,-0.222955 -0.18697,-0.37712 -0.29245,-0.23248 -0.31468,-0.122061 -0.33408,-0.4699 -0.23354,-0.275167 -0.0977,-0.293158 -0.10478,-0.112889 -0.0332,-0.275167 -0.14746,-0.11183 0.17286,-0.119592 -0.10089,-0.193322 0.085,-0.313267 0.20567,-0.407811 0.0279,-0.419806 -0.10936,-0.341488 0.0289,-0.389467 -0.13088,-0.380647 -0.11995,-0.01199 -0.0642,-0.294922 -0.18238,-0.05009 -0.0603,0.162277 -0.0702,-0.185914 -0.16052,-7.05e-4 -0.17145,-0.208844 -0.1524,-0.06138 -0.0314,0.131939 0.15875,0.138994 0.23672,0.186267 -0.0212,0.150989 -0.13864,0.03669 -0.0127,0.109008 0.17109,0.03034 -0.0614,0.134056 0.19509,0.137936 -0.11289,0.106186 0.0783,0.133703 -0.10724,0.08572 -0.0688,-0.154517 -0.16193,-0.05045 -0.1023,-0.233539 -0.2473,-0.01729 0.18697,-0.168628 -0.0268,-0.187678 -0.121,-0.0321 -0.09,0.183445 -0.22437,0.07197 -0.13723,0.255058 -0.0953,-0.13335 0.0497,-0.191911 0.25435,-0.0628 0.0318,-0.141111 -0.26458,0.06456 -0.11747,-0.124178 -0.15276,0.109008 -0.0744,-0.10548 -0.17497,0.04974 -0.0547,0.151342 -0.17428,0.05891 -0.042,0.141464 0.0945,0.104775 -0.13405,0.08714 0.0212,0.207433 -0.084,0.07303 -0.0399,0.191911 -0.10831,0.04551 -0.0663,-0.165806 0.13512,-0.225425 -0.0631,-0.264583 0.0998,-0.195439 -0.0293,-0.167217 0.15381,0.100895 0.16475,-0.04798 -0.10443,-0.124531 -0.0702,-0.18415 0.1958,-0.02011 0.0148,-0.150989 0.1845,-0.05891 0.23283,0.07655 0.46602,-0.03493 0.0328,-0.111478 -0.1397,0.0071 -0.0236,-0.09737 0.16404,-0.05997 0.0321,-0.131233 -0.36865,-0.0381 -0.11042,-0.192617 -0.28222,-0.233186 -0.0603,-0.196497 -0.127,-0.0021 0.0459,0.155575 0.0589,0.14605 0.24976,0.166158 -0.0981,0.05539 -0.16263,-0.06103 -0.27763,-0.203553 -0.21061,-0.0088 -0.0176,-0.117475 -0.33937,-0.07126 -0.29528,0.04621 0.0212,-0.150989 0.18627,-0.02011 0.11148,-0.314325 -0.0787,-0.153811 -0.0367,-0.177094 -0.25083,-0.0064 -0.17427,0.248355 -0.0727,0.301625 -0.24871,0.02399 -0.27305,0.103011 0.23425,-0.250119 0.20884,-0.03069 0.14464,-0.416278 0.10936,-0.0254 0.0219,-0.130528 -0.13335,-0.09243 -0.0402,-0.177095 0.0808,-0.172861 -0.01,-0.178153 -0.19297,-0.07973 0.18097,-0.158045 -0.19967,-0.358069 -0.25647,0.02434 0.001,-0.148519 -0.23636,0.02187 -0.03,-0.187325 -0.11077,-0.0127 -0.0395,0.189795 -0.22049,-0.0063 -0.13299,0.106186 -0.0998,-0.183092 0.25858,-0.04445 0.03,-0.181328 0.1584,0.04057 0.13547,-0.126295 0.17462,-0.05821 0.003,-0.258586 0.24201,-0.1524 0.0314,-0.131233 0.11042,-0.0056 0.0321,0.06703 0.11959,-0.02575 0.14499,-0.406047 -0.2293,-0.05644 0.0215,-0.140759 0.25611,-0.02328 0.0529,-0.470606 0.42475,-0.572911 0.45543,-0.50165 0.43357,-0.36583 0.0511,-0.62477 -0.13865,-0.384175 -0.20143,0.01058 -0.0303,-0.09631 0.18168,-0.04621 0.0173,-0.263877 -0.12841,-0.529167 -0.0194,-0.188383 0.12135,-0.162278 0.24307,-0.06985 0.12665,-0.167217 -0.28011,-0.192969 -0.34713,0.0321 -0.33514,-0.04163 -0.33373,-0.07091 -0.26141,0.548569 -0.66851,0.627239 v 0.8763 l -0.37571,0.584905 -0.12453,0.542572 -0.96132,0.918634 -1.1677,0.08255 -0.37606,0.50165 v 0.5842 l -0.45861,0.416983 -0.92004,1.126772 h -1.29223 l -0.33443,0.334081 -0.0826,0.5842 -0.50341,0.167216 -0.33091,0.835731 -0.70979,0.710142 -0.58561,0.249766 -0.21061,0.792692 -0.75106,0.167216 -0.12418,0.334081 -0.66851,0.04127 -0.29281,0.585611 0.25153,0.626181 0.62724,0.33408 -0.21025,0.458258 -0.66852,0.04127 -0.3309,0.50165 h -0.33444 l -0.16863,0.528462 0.55704,0.222602 0.38841,0.501297 0.83749,0.05574 0.11113,0.50165 0.16545,0.555625 0.89182,-0.05574 0.11113,-0.27693 1.27988,0.05397 0.72284,0.779639 1.06009,0.557389 0.0536,1.223786 -0.33408,1.113013 0.39194,0.89147 0.94509,0.388408 1.55681,0.280106 1.00295,0.891116 -0.0543,0.99942 -0.55704,1.0033 0.2226,0.557036 0.60184,-0.08431 0.34714,-0.424392 0.69603,0.07479 0.38558,-0.38488 1.61819,0.07796 0.23178,-0.425097 1.00365,0.03951 0.15346,0.425098 h 0.69674 l 0.11394,0.346075 0.77153,-0.346075 0.38558,0.499533 -0.1143,0.53975 1.11796,0.03916 0.34642,-0.271286 1.19627,0.117475 0.46073,0.271639 h 0.54293 l 0.49988,0.692855 0.57926,0.03916 0.34608,-0.424745 0.84984,0.03916 0.34643,0.346427 0.65687,0.03916 0.49989,0.34678 0.57855,0.07796 0.69639,0.229306 0.0367,1.121127 0.87982,0.28575 -7e-4,-0.0021 1.6771,0.05433 0.0169,-0.386998 -0.30409,-0.169333 -0.22013,0.04939 -0.0705,-0.291747 -0.37748,-0.178859 0.29281,-0.384175 -0.0198,-0.351366 0.21555,-0.08396 0.34078,0.129822 0.4452,-0.282928 0.86643,0.06209 0.64029,-0.07126 0.32103,0.111478 0.0236,0.142169 0.15063,-0.212372 -0.0205,-0.141464 0.4184,-0.05997 0.20814,-0.286456 0.786341,-0.375002 0.55986,0.02963 0.25153,-0.347839 0.31326,-0.228953 z"
       style="fill:#8cc3e1;fill-opacity:1;fill-rule:nonzero;stroke:#ffffff;stroke-width:0.232481;stroke-linecap:butt;stroke-linejoin:miter;stroke-miterlimit:10;stroke-dasharray:none;stroke-opacity:1" />
    <path
       id="path56"
       d="m 80.488589,39.235375 -0.0272,0.270933 0.0504,0.1778 0.1009,0.0046 -0.0243,-0.28963 0.0416,-0.142522 0.0529,-0.122414 -0.0628,-0.06667 z"
       style="fill:#8cc3e1;fill-opacity:1;fill-rule:nonzero;stroke:none;stroke-width:0.352778" />
    <path
       id="path57"
       d="m 80.682759,39.134199 -0.0628,-0.06703 -0.13123,0.168275 -0.0272,0.270934 0.0501,0.177447 0.10089,0.0049 -0.024,-0.289631 0.0416,-0.142522 z"
       style="fill:none;stroke:#ffffff;stroke-width:0.232481;stroke-linecap:butt;stroke-linejoin:miter;stroke-miterlimit:10;stroke-dasharray:none;stroke-opacity:1" />
    <path
       id="path58"
       d="m 81.120979,41.295773 0.254,0.245886 0.0367,-0.101953 -0.15169,-0.202494 -0.0702,-0.356658 -0.21379,-0.238831 -0.11324,-0.254 -0.0286,-0.329847 -0.1404,-0.162278 -0.12277,-0.05468 -0.0314,0.142169 0.14605,0.1524 0.0702,0.166864 0.0377,0.309386 0.14076,0.172508 0.14499,0.112184 -0.0215,0.151694 z"
       style="fill:#8cc3e1;fill-opacity:1;fill-rule:nonzero;stroke:#ffffff;stroke-width:0.232481;stroke-linecap:butt;stroke-linejoin:miter;stroke-miterlimit:10;stroke-dasharray:none;stroke-opacity:1" />
    <path
       id="path59"
       d="m 81.526389,41.744049 0.14182,0.192617 0.23989,0.147461 -0.0194,-0.168628 -0.25894,-0.287514 z"
       style="fill:#8cc3e1;fill-opacity:1;fill-rule:nonzero;stroke:#ffffff;stroke-width:0.232481;stroke-linecap:butt;stroke-linejoin:miter;stroke-miterlimit:10;stroke-dasharray:none;stroke-opacity:1" />
    <path
       id="path60"
       d="m 0,0 -2.843,2.527 -4.413,0.795 -2.68,1.1 -1.11,2.527 0.948,3.155 -0.153,3.469 -3.006,1.579 -2.048,2.211 -3.629,0.153 -0.314,-0.784 -2.527,-0.159 -0.469,1.576 -0.316,1.421 -2.374,0.158 -1.101,1.421 -1.579,0.631 -2.996,-1.895 v -3.312 l -2.527,-1.579 -1.579,-2.685 h -1.732 l -2.049,1.58 -2.211,-1.264 -2.843,-2.364 -3.944,-0.157 -3.627,-1.895 -1.895,-2.365 -3.311,-1.259 -0.633,-2.058 -2.364,-1.264 -1.263,-2.363 -2.68,-0.469 -1.895,-1.895 -1.733,-0.163 -1.426,-1.733 -1.263,2.048 -2.207,0.948 -1.579,1.733 3.156,2.373 0.476,2.68 -2.684,0.474 -2.838,2.206 -2.369,0.474 -1.579,2.37 -4.26,0.315 -2.522,-0.947 -3.158,0.158 -2.049,1.264 -2.685,-1.107 -2.048,0.475 v 1.578 l -3.474,1.891 -0.943,-1.418 -1.421,1.26 -0.948,2.527 -3.627,1.421 -2.054,-1.421 -0.631,-2.053 -2.68,-0.316 -0.749,-2.246 1.299,-2.487 1.895,-1.891 0.352,-3.311 1.895,-1.192 0.118,-2.247 -2.604,-0.948 -1.891,-1.416 1.539,-2.129 -1.065,-0.353 -1.768,1.139 -2.457,0.074 -0.959,1.843 -1.975,1.018 -1.912,1.434 -2.935,3.008 -3.394,-0.193 1.77,-3.883 -0.183,-2.111 -1.627,-1.927 -1.194,-1.34 -0.553,-1.155 0.315,-1.643 0.095,-1.803 0.483,-1.069 v -0.01 0.01 l -0.483,1.069 -0.095,1.803 -0.316,1.643 0.554,1.156 2.821,3.266 0.182,2.111 -1.898,3.818 -0.98,-0.908 -0.272,-2.314 -2.254,-0.277 -1.907,1.23 -1.092,-1.371 -1.232,0.547 -0.065,2.388 -2.526,1.37 -0.954,5.05 -1.163,0.273 -0.043,-31.506 2.141,-1.121 0.469,-3.322 1.737,-1.099 -0.631,-2.212 1.105,-3.464 2.842,-3.639 h 3.47 l 0.79,3.322 -1.737,1.885 1.895,2.373 1.417,-1.263 2.842,0.317 0.789,-3.159 h 2.049 l 0.948,-2.365 2.996,-2.21 0.947,0.949 -1.417,2.209 0.317,1.417 1.732,-0.948 1.579,1.58 -1.263,1.264 v 2.048 l 1.105,2.056 2.054,-1.109 4.417,-2.527 -0.79,-2.364 0.79,-2.212 1.89,-0.946 1.579,1.579 2.212,-0.153 1.574,-2.212 -0.948,-2.048 -1.417,-0.795 v -2.363 l 0.791,-1.1 -0.474,-2.375 -1.58,-2.518 -0.947,-2.526 1.105,-0.478 0.475,-1.886 3.153,0.786 1.895,2.209 3.786,0.632 1.263,1.1 2.363,-0.63 0.317,-2.211 1.263,-1.733 v -2.211 l 1.58,-1.58 v -2.048 l 1.574,-1.262 0.789,-2.212 2.685,-0.785 0.948,-1.263 2.207,0.162 0.631,2.518 1.263,1.109 1.263,-1.426 2.049,-0.469 0.948,1.263 -1.106,0.949 0.158,2.995 2.527,-1.895 v -1.731 l 3.154,-0.479 1.1,-1.255 2.212,-0.63 1.579,-2.058 0.794,-2.997 1.416,-1.732 0.47,-2.374 -1.101,-0.938 1.264,-1.263 -0.163,-1.58 1.742,-0.479 2.374,-1.1 0.563,0.339 -0.087,0.847 0.17,0.663 0.439,1.254 0.629,0.831 0.816,0.326 -0.004,0.453 0.34,0.548 1.651,0.329 0.33,0.835 -2.23,0.917 -0.65,0.43 -0.651,0.222 -0.948,-0.433 -0.607,0.299 -0.223,0.92 -0.789,-0.172 0.057,0.56 -0.416,0.505 0.106,0.741 -0.223,0.892 -0.873,0.089 -1,0.712 -0.631,1.206 0.483,1.04 1.117,1.213 0.439,1.178 1.572,2.447 0.469,0.938 1.753,1.502 -0.003,0.557 0.484,1.02 -0.044,0.729 1.253,0.291 1.268,1.058 0.616,1.185 0.794,0.833 0.494,2.478 -0.544,0.689 -1.09,0.547 -0.589,0.196 -0.658,1.091 -0.46,0.898 -0.543,0.706 0.005,1.039 0.116,0.922 -0.321,0.958 -0.44,0.798 -0.487,0.643 -1.028,0.229 1.173,0.231 0.719,-0.302 0.169,0.581 -0.604,1.263 -0.788,0.341 -0.65,0.419 0.128,0.649 -0.286,0.576 0.023,0.917 -0.238,0.804 -0.199,1.298 0.231,0.435 -0.285,0.528 -0.544,-0.086 -0.663,-0.261 -0.025,-0.616 -0.69,0.239 0.134,0.743 -0.307,0.378 -0.518,0.198 0.075,0.788 -0.25,0.388 -0.838,-0.107 -0.545,0.652 -0.929,0.618 -0.805,0.803 -1.375,0.345 -1.14,-0.098 -0.765,0.209 -0.449,0.399 -0.944,0.202 -1.213,-0.196 -0.777,-0.462 -1.095,-0.059 -1.169,-0.232 -0.784,-0.427 -0.978,0.115 -0.726,0.22 -0.742,-0.387 -0.567,0.358 -0.555,0.811 -0.545,0.238 -0.661,0.966 -0.866,0.374 -0.793,0.517 -0.387,0.181 -0.122,0.403 -0.544,0.548 -1.419,0.948 -0.348,1.414 -0.893,0.707 -1.771,-0.056 -0.529,0.268 -2.62,-0.144 -0.789,0.026 -0.391,0.32 -0.606,-0.138 -0.359,0.328 -0.659,-0.451 -0.835,-0.349 -0.559,-0.405 -0.415,0.081 -0.675,-0.173 -0.179,-0.424 -0.457,0.252 -0.104,-0.591 -0.653,-1.233 -0.225,-0.792 -0.657,-0.548 0.04,-0.715 -0.203,-0.628 -0.511,-0.061 -0.148,-0.38 0.227,-0.4 -0.43,-0.261 -0.203,-0.628 -0.518,0.11 -0.298,-0.224 -0.116,0.265 -0.39,0.287 -0.648,-0.034 -0.196,0.433 -0.606,-0.137 -0.605,0.448 -0.732,0.265 -0.659,0.782 -0.403,-0.122 -0.563,0.955 -0.376,0.021 -2.042,1.118 -0.835,0.904 -0.529,0.28 -0.086,0.341 -0.965,0.791 -0.65,0.687 -1.432,0.112 -0.827,0.659 -1.779,0.258 -1.486,-1.845 -3.273,0.085 -3.686,0.985 3.686,-0.984 2.992,0.038 0.885,0.768 0.752,1.162 0.425,0.401 0.826,-0.155 0.776,-0.444 0.818,-0.562 0.997,-0.19 0.978,-0.384 0.976,-0.974 0.888,-0.602 0.617,-0.654 0.65,-0.062 1.328,-0.609 0.656,-0.685 0.408,-0.007 0.846,-1.117 0.243,-0.057 1.323,-1.089 0.448,-0.072 0.731,-0.232 1.197,-0.076 0.188,0.286 -0.437,0.584 0.769,0.22 0.356,1.04 0.472,0.745 0.791,0.52 0.064,0.623 0.304,0.697 -0.326,0.427 -0.011,0.781 -0.276,0.7 -0.587,0.718 -0.937,0.943 -0.028,0.513 -0.534,0.379 -0.135,0.541 -0.551,0.1 -0.362,-0.218 -0.129,0.468 0.372,0.088 -0.035,0.577 0.258,0.288 0.109,0.55 0.244,-0.089 -0.05,-1.018 0.783,-1.12 0.639,-0.514 0.214,-0.775 0.574,-0.515 0.246,-0.743 0.817,-1.183 0.443,0.027 0.484,0.467 0.583,-0.002 0.553,-0.174 0.525,0.446 0.205,0.586 -0.247,0.163 0.218,0.35 -0.46,0.317 -0.13,0.5 0.891,-0.047 0.388,-0.221 0.647,0.033 0.637,-0.439 0.862,-0.121 0.503,-0.486 0.576,0.064 1.08,0.229 0.088,-0.372 0.542,0.136 0.631,-0.278 0.474,0.059 0.521,-0.175 0.544,0.063 0.387,-0.212 0.611,0.031 0.455,-0.178 0.489,-0.797 0.046,-0.889 0.514,-0.614 0.984,-0.597 0.442,-0.554 0.303,-0.535 0.303,0.054 0.3,-0.456 0.474,-0.144 0.23,-0.322 1.037,-0.407 0.632,-0.771 0.78,-0.377 0.928,0.09 0.197,-0.579 0.825,-0.338 0.669,0.08 0.658,0.376 0.805,0.719 1.13,0.145 0.652,-0.263 0.755,0.049 1.091,0.183 1.21,0.234 1.465,0.29 0.664,-0.554 0.336,-0.658 0.772,-0.17 0.78,-0.379 0.494,-0.558 0.924,-0.713 0.621,-0.431 0.981,-0.164 0.587,-0.053 0.803,-0.206 -0.638,1.376 -0.564,-0.087 0.049,1.241 -0.284,1.057 -0.599,0.583 -0.032,0.231 -0.319,-0.098 -0.323,0.703 -0.334,-0.182 -0.386,-0.534 -1.088,0.536 -0.442,-0.366 -0.109,0.423 -0.479,0.142 -0.039,-0.72 -0.581,-0.163 -0.516,0.189 -0.044,0.632 0.372,0.183 -0.176,0.868 -0.745,0.25 -0.036,0.228 0.629,0.118 0.184,0.386 -0.378,0.023 0.059,0.427 0.578,0.24 0.535,1.134 0.271,-0.405 0.604,0.532 0.348,-0.184 -0.695,-0.376 0.139,-0.714 -0.886,-0.345 -0.581,-0.919 0.184,-0.372 1.312,0.076 0.381,-0.546 -0.028,-0.575 0.418,0.186 0.268,-0.321 0.751,0.12 0.232,0.397 0.634,-0.003 0.313,0.473 0.58,0.127 0.165,-0.015 0.062,0.061 0.591,0.654 0.67,0.035 0.484,0.481 0.582,-0.424 0.608,0.202 -0.29,-0.853 -0.558,0.017 -1.375,-0.691 0.376,-0.716 -0.711,-0.488 -0.356,-0.581 0.265,-0.988 0.722,-0.516 0.835,1.502 2.411,1.125 0.257,0.979 0.46,-0.517 0.78,0.272 0.019,0.979 0.36,0.585 -0.327,0.852 0.717,0.128 -0.662,1.569 0.529,1.078 0.893,0.366 0.709,1.763 -0.522,0.59 0.257,0.585 0.821,0.088 0.675,0.834 -0.2,0.717 0.841,0.463 0.262,-0.457 1.299,0.796 0.251,0.444 0.721,0.046 0.607,0.317 -0.171,0.41 -1.234,-0.056 -0.407,0.369 -0.487,-0.11 0.014,0.287 0.637,0.451 0.119,0.323 0.712,0.003 0.143,-0.289 0.147,-0.639 0.697,0.167 0.635,-0.77 1.633,1.127 0.012,-0.555 -0.586,-0.253 0.053,-0.284 -1.404,-1.152 -0.639,0.017 -0.591,-0.589 -1.441,-0.64 -0.777,-0.785 0.456,-0.705 -0.897,-0.869 0.815,-0.111 0.976,0.721 0.951,-0.2 1.039,0.4 1.804,0.94 -1.256,-1.377 0.272,-0.718 -1.661,-0.485 -2.068,-0.95 -1.065,-1.127 0.784,-1.031 1.146,-0.269 -1.527,-0.936 0.14,-1.508 -1.35,-1.089 -0.139,-0.799 0.852,-0.848 -0.537,-0.541 -0.489,0.386 -1.758,-0.528 -0.515,-1.241 -0.4,1.165 -1.233,-0.219 -1.131,-1.552 0.091,-0.679 -1.068,-0.002 -0.95,-0.166 1.642,-1.184 1.701,-0.899 0.401,-1.499 -0.183,-1.743 0.464,-0.806 0.117,-1.585 0.803,-1.247 0.712,1.445 0.9,-0.063 1.031,0.785 0.628,1.953 0.246,1.09 1.34,0.803 1.564,3.234 -0.099,0.896 0.386,1.091 1.373,0.702 1.53,-0.225 0.525,-0.342 0.361,0.751 1.09,0.683 0.61,0.091 1.1,1.39 -0.7,-1.424 -0.765,-0.548 -0.932,-0.395 -0.711,-1.373 -2.22,0.646 -1.173,-0.734 0.077,-0.979 -1.096,-2.357 -1.025,-2.361 1.175,-0.637 -0.612,-0.286 -0.995,0.568 -0.548,-0.401 -0.353,-1.569 0.245,-0.493 -0.382,-0.374 -0.261,-1.182 -0.687,0.461 -0.986,-0.088 -0.344,-0.541 -0.023,-0.673 -0.545,-0.371 -0.634,-1.434 0.23,-1.319 -0.125,-1.25 0.232,-1.356 0.463,-0.513 0.669,-0.886 0.362,-0.319 0.494,0.198 0.863,-1.093 -0.055,-1.354 1.271,1.418 0.112,-0.461 -0.841,-0.806 -0.132,-0.858 0.336,-0.561 0.757,0.67 0.142,0.601 0.858,0.599 0.807,0.673 -0.844,0.838 0.586,-0.006 0.404,-0.439 0.378,0.78 0.305,-0.065 -0.057,-0.513 0.805,0.806 1.266,1.55 0.648,0.374 0.301,0.705 1.022,1.395 0.701,-0.306 -0.131,-0.807 -0.748,-0.254 -0.4,-1.207 -1.107,-0.477 -1.515,-1.776 -0.713,-0.282 -0.034,-0.832 -0.545,0.285 -1.738,-1.243 0.007,-0.738 -1.007,-1.385 0.137,-1.177 0.585,-1.36 -1.008,1.259 -0.554,1.281 -1.495,-0.676 -0.259,-0.876 0.068,-1.163 -1.043,-0.983 -2.092,-1.942 -0.703,-1.105 -1.178,-0.969 -1.571,-1.778 -0.638,-1.725 -0.946,-0.754 -0.551,-1.183 1.157,-1.13 0.72,-0.05 0.331,-0.527 0.753,-0.388 0.371,0.694 0.903,0.393 0.393,0.866 0.713,-0.845 0.874,0.128 -0.323,-0.732 0.27,-0.415 0.834,0.707 0.679,1.127 -0.52,0.112 -0.572,0.859 0.643,1.48 c 0,0 0.427,-0.061 0.427,-0.061 l 2.04,3.041 1.258,1.668 2.279,1.558 3.261,3.648 1.139,0.145 0.516,-0.142 0.647,0.414 0.252,-0.702 -0.211,-0.688 -1.29,-0.407 -0.427,-0.744 -0.319,0.213 0.381,0.934 1.057,0.058 0.137,0.675 -0.648,0.1 -0.409,-0.195 -0.58,-0.115 -0.542,-1.039 -0.739,-0.427 -1.393,-2.014 -1.204,-0.663 -1.096,-0.826 -0.74,-1.218 0.135,-1.84 0.282,-0.49 -0.401,-0.422 0.102,-0.439 -0.706,-1.297 -0.54,-0.87 -0.288,-1.104 -0.919,-0.215 -0.514,-0.709 -0.808,0.085 -0.325,-0.902 -1.81,-0.768 -0.119,-1.013 0.697,-0.257 -0.335,-0.374 0.565,-0.178 0.457,-0.617 2.227,-0.637 0.681,0.035 0.952,0.13 0.289,-1.09 1.068,-0.861 -0.547,-0.525 0.111,-1.01 0.401,-0.362 0.571,-0.386 0.605,0.073 0.963,0.945 -0.785,2.049 -0.153,1.742 2.68,2.68 1.579,1.263 -1.11,2.049 0.316,2.527 2.211,0.315 1.1,1.579 1.58,-0.315 0.794,2.21 1.57,-0.161 v -2.049 l 1.11,-1.111 1.417,0.479 0.479,-1.427 4.259,0.948 4.259,5.207 -0.478,2.843 2.21,1.732 0.479,2.527 2.518,2.211 3.79,0.316 2.21,1.895 0.948,1.733 h 2.527 l 0.153,2.211 2.048,1.416 0.479,2.68 1.896,0.632 0.153,6.47 -1.58,0.315 -1.733,1.428 -2.68,-1.111 -1.894,-1.896 -2.048,-0.631 -0.796,3.475 1.897,2.049 -0.795,2.373 0.947,2.68 2.058,2.211 v 2.833 l 2.202,1.742 2.058,0.317 2.364,2.995 2.842,0.948 1.264,2.679 -0.632,1.58 1.579,2.843 z m -123.248,-19.143 -1.262,0.46 -0.8,0.842 -1.955,2.528 2.853,-3.082 1.165,-0.748 z"
       style="fill:#2c737a;fill-opacity:1;fill-rule:nonzero;stroke:#ffffff;stroke-width:0.439;stroke-linecap:butt;stroke-linejoin:miter;stroke-miterlimit:10;stroke-dasharray:none;stroke-opacity:1"
       transform="matrix(0.35277776,0,0,-0.35277776,78.866939,55.431439)"
       clip-path="url(#clipPath61)" />
    <path
       id="path62"
       d="m 47.167108,24.216991 v 0.835731 l 0.375708,0.249766 v 0.83432 l -0.625827,0.209902 -0.835378,0.375709 -0.04127,1.209675 h 0.458258 l 0.334433,-0.334081 0.626887,0.375708 0.291394,1.085498 0.376061,0.501297 0.04092,0.91828 0.668514,0.542925 v 0.709789 l 0.376061,0.50165 -0.751416,0.625475 -0.04163,1.085497 -0.959908,0.542925 -0.626887,0.501297 0.542573,0.709789 0.584552,0.458611 -0.458963,0.542572 0.04163,0.5842 -0.836083,0.251178 -0.08255,1.168753 -1.628069,0.08255 -0.416984,0.627592 0.125589,1.335263 -0.794103,0.458611 -0.0829,0.877006 -0.710142,0.542572 -0.41663,-0.249766 -0.125942,-0.334434 -0.458611,-0.08255 -0.209903,-0.877005 -0.66675,0.08255 -0.292805,0.460375 -0.625828,0.123825 -0.668514,0.627239 0.668514,0.877005 -0.418747,0.709436 -1.25095,0.375356 -0.208492,0.960613 -1.169811,-0.33408 -0.375708,-0.710142 -0.625475,0.208492 -0.125942,0.709789 0.5842,0.293158 -0.249767,0.709436 0.918281,0.08326 0.5842,0.33408 -0.208492,1.042459 -0.709789,0.542925 0.208492,0.877005 0.626886,0.542925 0.416983,1.669697 0.877006,0.167217 0.458611,0.876653 0.668514,0.667455 0.123825,1.168047 0.669219,0.420864 0.04092,0.791986 -0.91828,0.334434 -0.667103,0.499886 0.542925,0.751063 -0.375708,0.124531 -0.623711,-0.401814 -0.867128,-0.02611 -0.337608,-0.649817 -0.697795,-0.359833 -0.673805,-0.505531 -1.03505,-1.061155 -1.198033,0.06773 -0.09984,-0.409928 -0.122413,-0.430741 -0.14852,-0.54857 -0.112536,-0.788105 -0.567267,-0.546453 -0.395111,-0.684389 0.08079,-0.341136 0.574675,-0.578556 0.104775,-0.404636 -0.189089,-0.388055 -0.192263,-0.232834 -0.373945,-0.263877 -0.655461,-0.352778 -0.313267,-0.190147 -0.691091,-0.484717 -0.0695,-0.774347 -0.08678,-0.382764 0.258234,-0.336197 -0.284339,-0.923572 -0.0035,-1.14547 0.500239,-1.147586 -0.08079,-0.51188 -0.421217,-0.438856 0.238478,-1.202619 0.395464,-0.489656 -0.297392,-1.817864 0.542219,-0.730602 -0.0575,-0.340078 -0.395464,-0.455436 -0.197203,-0.463903 -0.254706,-0.304094 -0.183091,-0.94227 -0.220486,-0.326319 -0.246239,-0.03881 -0.485422,-0.132291 0.485422,0.132291 0.246239,0.03881 0.220486,0.326319 0.183091,0.94227 0.254706,0.304094 0.197203,0.463903 0.395464,0.455436 0.0575,0.340078 -0.542219,0.730602 0.297392,1.817864 -0.395464,0.489656 -0.238478,1.202619 0.421217,0.438856 0.08079,0.51188 -0.500239,1.147586 0.0035,1.14547 0.284339,0.923572 -0.258234,0.336197 0.08678,0.382764 0.0695,0.774347 0.691091,0.484717 0.313267,0.190147 0.655461,0.352778 0.373945,0.263877 0.192263,0.232834 0.189089,0.388055 -0.104775,0.404636 -0.574675,0.578556 -0.08079,0.341136 0.395111,0.684389 0.567267,0.546453 0.02505,0.8128 0.244122,1.020586 0.168981,0.367594 -0.345722,0.319617 -0.09631,0.817033 -0.795161,0.09737 -0.672394,-0.433917 -0.385586,0.483306 -0.43427,-0.192617 -0.02258,-0.842432 -0.89147,-0.483306 -0.33655,-1.781528 -0.385586,-0.09631 -0.0388,-17.460382 -0.23495,-0.274109 -0.390173,-0.265289 -0.818091,-0.440619 -0.240595,-0.340078 -0.17533,-0.41028 -0.405695,-0.549981 -0.312208,-0.446616 -0.223661,-0.05468 0.03845,-0.531989 -0.26282,-0.360892 -0.635352,-0.318558 -0.150637,-0.335492 -0.607483,-0.563738 -0.569736,-0.24765 -0.52705,-0.546806 -0.522817,-0.468842 -0.215194,-0.325261 0.04269,-0.280458 -0.707672,-0.239889 -0.611011,-0.602191 -0.630414,0.09278 -0.6096,-0.244828 -0.618772,-0.04551 -0.471311,0.106186 -0.106186,0.244122 -0.249767,0.1524 -0.02011,0.716492 0.173214,0.627592 -0.329495,0.156986 -0.401461,-0.07832 -0.428272,0.162983 -0.3429,-0.08043 -0.356658,-0.358775 -0.517525,-0.01058 -0.638528,0.331611 -0.754945,0.02222 -0.131938,0.484011 -0.217664,0.390525 -0.705909,0.177094 -0.498827,-0.05186 -0.435328,0.04304 -0.305153,-0.122061 -0.369358,0.158397 -0.12312,0.286455 -0.820914,0.263525 -1.257299,0.644878 -0.489656,0.106892 -0.7761113,-0.375356 -0.689328,-0.598311 -0.167922,-0.170744 -0.643114,-0.482247 -0.255058,0.05468 -0.05115,-0.19685 -0.09172,-0.252941 0.127353,-0.204964 -0.131234,-0.21202 0.02505,-0.637116 3.9980303,-1.053395 4.485216,-1.954741 3.320697,-3.243086 0.02505,-6.085769 0.08431,-3.203928 1.385359,0.03104 0.111478,0.77717 0.555624,0.334433 h 0.668514 l 0.778228,1.002947 h 1.169811 l 1.446742,1.446742 1.168752,-0.111478 0.05539,1.000831 -1.892299,1.725788 0.111477,0.668514 0.835378,0.945092 0.05609,0.668866 -0.612775,0.445912 v 0.833613 l 0.835378,0.780345 v 0.612069 l 0.77858,0.61207 0.724253,0.278341 -0.668867,0.445911 v 0.557036 l 0.947209,0.165453 0.501297,0.724253 -0.389819,0.445558 -0.05574,0.778581 0.390172,0.222603 0.276578,-0.443795 0.891469,-0.278694 1.001536,0.889705 0.166864,-1.781175 0.668514,-0.445911 -0.05574,-0.945444 0.557389,-0.278342 0.778227,0.50165 0.05574,0.777875 1.391003,0.891822 0.724253,-0.445911 1.279877,-0.167216 0.167217,-0.778228 1.22555,-1.114072 0.722489,-0.222956 0.390172,-0.834319 0.278694,0.724252 1.056923,-0.445558 0.222602,-0.83573 1.056922,-0.167217 0.612775,0.947561 0.724606,-0.111478 0.722489,-0.50165 0.779991,-0.05574 0.445559,-0.389819 0.722489,0.612775 0.891469,0.05574 0.111478,-0.50165 0.555272,0.167217 -0.05539,0.779991 0.33408,0.222956 z"
       style="fill:#3753a4;fill-opacity:1;fill-rule:nonzero;stroke:#ffffff;stroke-width:0.154869;stroke-linecap:butt;stroke-linejoin:miter;stroke-miterlimit:10;stroke-dasharray:none;stroke-opacity:1" />
    <path
       id="path63"
       d="m 48.54587,98.118284 -0.01094,0.043 -0.0254,-0.002 -0.06703,-0.005 0.01588,0.0455 -0.0056,-3.5e-4 0.05574,0.16192 0.04374,0.11853 -0.01235,0.1831 0.01376,0.004 -0.0032,0.043 0.106892,0.03 0.06491,-0.10654 -0.01623,-0.037 0.0053,-0.009 -0.06668,-0.15099 0.06209,-0.29704 -0.0187,-0.007 0.0081,-0.0378 H 48.6958 v -3.5e-4 l -0.131587,-0.0515 z"
       style="fill:#132744;fill-opacity:1;fill-rule:nonzero;stroke:none;stroke-width:0.352778" />
    <path
       id="path64"
       d="m 48.711359,98.586634 -0.06668,-0.15134 0.06209,-0.29704 -0.0187,-0.007 0.0081,-0.0381 h -3.53e-4 v -3.5e-4 l -0.131586,-0.0512 -0.01835,0.0766 -0.01094,0.0434 -0.0254,-0.002 -0.06738,-0.005 0.01588,0.0459 -0.0053,-3.5e-4 0.05539,0.16157 0.0441,0.11854 -0.01235,0.18309 0.01341,0.004 -0.0028,0.0427 0.106892,0.03 0.06491,-0.10654 -0.01658,-0.037 z"
       style="fill:none;stroke:#ffffff;stroke-width:0.154869;stroke-linecap:butt;stroke-linejoin:miter;stroke-miterlimit:10;stroke-dasharray:none;stroke-opacity:1" />
    <path
       id="path65"
       d="m 45.882363,88.800614 -0.09172,0.0145 -0.09102,0.0663 h 3.53e-4 l 0.145697,0.0843 0.03704,-0.1651 z"
       style="fill:#132744;fill-opacity:1;fill-rule:nonzero;stroke:none;stroke-width:0.352778" />
    <path
       id="path66"
       d="m 45.845567,88.965684 0.03739,-0.1651 h -3.52e-4 l -0.09207,0.0145 -0.09066,0.0663 h 3.53e-4 z"
       style="fill:none;stroke:#ffffff;stroke-width:0.154869;stroke-linecap:butt;stroke-linejoin:miter;stroke-miterlimit:10;stroke-dasharray:none;stroke-opacity:1" />
    <path
       id="path67"
       d="m 45.41151,87.390284 -0.0021,0.005 0.108656,0.0776 0.0508,-0.13159 -0.0508,-0.0353 -0.04551,-0.0314 -3.53e-4,-3.6e-4 z"
       style="fill:#132744;fill-opacity:1;fill-rule:nonzero;stroke:none;stroke-width:0.352778" />
    <path
       id="path68"
       d="m 45.568919,87.341064 -0.0508,-0.0356 -0.04551,-0.0314 -3.53e-4,-3.5e-4 -0.06068,0.11677 -0.0021,0.004 0.108656,0.078 z"
       style="fill:none;stroke:#ffffff;stroke-width:0.154869;stroke-linecap:butt;stroke-linejoin:miter;stroke-miterlimit:10;stroke-dasharray:none;stroke-opacity:1" />
    <path
       id="path69"
       d="m 45.257523,87.169304 -0.01341,0.001 -0.0515,0.10901 0.1524,0.0243 0.0021,-0.0568 0.0025,-0.0836 v -3.6e-4 z"
       style="fill:#132744;fill-opacity:1;fill-rule:nonzero;stroke:none;stroke-width:0.352778" />
    <path
       id="path70"
       d="m 45.346918,87.247014 0.0028,-0.0836 v -3.5e-4 l -0.09243,0.006 -0.01305,10e-4 -0.05186,0.10936 0.152753,0.0243 z"
       style="fill:none;stroke:#ffffff;stroke-width:0.154869;stroke-linecap:butt;stroke-linejoin:miter;stroke-miterlimit:10;stroke-dasharray:none;stroke-opacity:1" />
    <path
       id="path71"
       d="m 45.359758,86.636214 -0.0011,0.009 -0.01446,0.13124 0.07303,0.0885 7.05e-4,3.6e-4 0.04974,-0.13018 0.07973,-0.0254 0.01129,-0.003 -0.04057,-0.1016 z"
       style="fill:#132744;fill-opacity:1;fill-rule:nonzero;stroke:none;stroke-width:0.352778" />
    <path
       id="path72"
       d="m 45.359829,86.636294 -0.0011,0.009 -0.01446,0.13124 0.07302,0.0885 3.53e-4,3.6e-4 0.04974,-0.13018 0.08008,-0.0254 0.01129,-0.004 -0.04057,-0.10124 z"
       style="fill:none;stroke:#ffffff;stroke-width:0.154869;stroke-linecap:butt;stroke-linejoin:miter;stroke-miterlimit:10;stroke-dasharray:none;stroke-opacity:1" />
    <path
       id="path73"
       d="m 49.023073,94.238124 0.01376,0.25153 0.0099,0.009 0.0014,0.0307 0.124531,0.1076 0.05221,0.10513 0.06668,-0.0501 -0.0074,-0.16686 -0.01058,-0.007 -0.0011,-0.0325 -0.04692,-0.0328 -0.06526,-0.0459 -0.0078,-0.12982 -0.0095,-0.002 -0.0018,-0.037 -0.119592,-0.0296 z"
       style="fill:#132744;fill-opacity:1;fill-rule:nonzero;stroke:none;stroke-width:0.352778" />
    <path
       id="path74"
       d="m 49.023073,94.238154 0.01376,0.25153 0.0099,0.009 0.0018,0.0307 0.124178,0.10725 0.05221,0.10548 0.06668,-0.0501 -0.0074,-0.16686 -0.01058,-0.007 -0.0014,-0.0325 -0.04657,-0.0328 -0.06526,-0.0459 -0.0074,-0.13017 -0.0095,-0.002 -0.0021,-0.037 -0.119945,-0.0296 z"
       style="fill:none;stroke:#ffffff;stroke-width:0.154869;stroke-linecap:butt;stroke-linejoin:miter;stroke-miterlimit:10;stroke-dasharray:none;stroke-opacity:1" />
    <path
       id="path75"
       d="m 48.29949,98.289734 -0.0025,0.003 0.02928,0.0243 -0.01905,0.0208 0.146756,0.12171 -0.0314,-0.0632 0.02117,0.0173 3.53e-4,3.6e-4 -0.09208,-0.18274 -3.53e-4,-3.5e-4 z"
       style="fill:#132744;fill-opacity:1;fill-rule:nonzero;stroke:none;stroke-width:0.352778" />
    <path
       id="path76"
       d="m 48.443707,98.413594 3.53e-4,3.5e-4 -0.09172,-0.18274 -3.53e-4,-3.5e-4 -0.05256,0.0589 -0.0025,0.003 0.02928,0.0243 -0.0187,0.0208 0.146755,0.12171 -0.03175,-0.0631 z"
       style="fill:none;stroke:#ffffff;stroke-width:0.154869;stroke-linecap:butt;stroke-linejoin:miter;stroke-miterlimit:10;stroke-dasharray:none;stroke-opacity:1" />
    <path
       id="path77"
       d="m 47.472403,97.552184 -0.138289,0.031 -0.02822,0.0557 -0.01341,0.0272 v 3.5e-4 l 0.02681,0.008 -0.01799,0.0363 0.129469,0.0399 0.09384,-0.0289 0.14852,-0.0427 -0.05151,-0.0321 0.04269,-0.012 -3.53e-4,-3.5e-4 h 3.53e-4 l -0.157339,-0.0988 z"
       style="fill:#132744;fill-opacity:1;fill-rule:nonzero;stroke:none;stroke-width:0.352778" />
    <path
       id="path78"
       d="m 47.664207,97.635084 -3.53e-4,-3.5e-4 h 3.53e-4 l -0.157339,-0.0988 -0.03457,0.0162 -0.138289,0.0314 -0.02822,0.055 -0.01341,0.0275 v 3.6e-4 l 0.02681,0.008 -0.01799,0.0363 0.129469,0.0399 0.09384,-0.0289 0.148519,-0.0427 -0.05115,-0.0321 z"
       style="fill:none;stroke:#ffffff;stroke-width:0.154869;stroke-linecap:butt;stroke-linejoin:miter;stroke-miterlimit:10;stroke-dasharray:none;stroke-opacity:1" />
    <path
       id="path79"
       d="m 48.930045,88.669484 0.05539,-0.0765 -0.141817,-0.002 z"
       style="fill:#132744;fill-opacity:1;fill-rule:nonzero;stroke:none;stroke-width:0.352778" />
    <path
       id="path80"
       d="m 48.843614,88.590434 0.08643,0.079 0.05539,-0.0766 z"
       style="fill:none;stroke:#ffffff;stroke-width:0.154869;stroke-linecap:butt;stroke-linejoin:miter;stroke-miterlimit:10;stroke-dasharray:none;stroke-opacity:1" />
    <path
       id="path81"
       d="m 49.246135,88.428324 0.147814,-0.0688 0.126294,-0.26388 0.04974,-0.1658 -0.153811,-0.005 -0.209197,0.22261 -0.160867,0.0801 0.03387,0.16192 0.137936,-0.0307 z"
       style="fill:#132744;fill-opacity:1;fill-rule:nonzero;stroke:#ffffff;stroke-width:0.154869;stroke-linecap:butt;stroke-linejoin:miter;stroke-miterlimit:10;stroke-dasharray:none;stroke-opacity:1" />
    <path
       id="path82"
       d="m 45.177195,88.721244 v 3.5e-4 l 0.04092,0.037 0.106539,0.0956 0.03104,-0.048 0.05503,-0.0857 h -3.53e-4 l 3.53e-4,-3.5e-4 z"
       style="fill:#132744;fill-opacity:1;fill-rule:nonzero;stroke:none;stroke-width:0.352778" />
    <path
       id="path83"
       d="m 45.177195,88.721344 v 3.5e-4 l 0.04092,0.037 0.106539,0.0956 0.03069,-0.048 0.05539,-0.0857 h -3.53e-4 l 3.53e-4,-3.5e-4 z"
       style="fill:none;stroke:#ffffff;stroke-width:0.154869;stroke-linecap:butt;stroke-linejoin:miter;stroke-miterlimit:10;stroke-dasharray:none;stroke-opacity:1" />
    <path
       id="path84"
       d="m 45.045293,87.589954 -0.02328,0.23707 0.1524,0.003 0.05962,-0.20285 0.158045,-0.0903 -0.122767,-0.12206 -0.106892,0.18168 z"
       style="fill:#132744;fill-opacity:1;fill-rule:nonzero;stroke:#ffffff;stroke-width:0.154869;stroke-linecap:butt;stroke-linejoin:miter;stroke-miterlimit:10;stroke-dasharray:none;stroke-opacity:1" />
    <path
       id="path85"
       d="m 47.121248,86.375554 -0.0695,0.0557 v 0 l 0.0021,0.003 0.05997,0.0864 3.52e-4,-3.5e-4 0.06632,-0.061 -0.05186,-0.0896 z"
       style="fill:#132744;fill-opacity:1;fill-rule:nonzero;stroke:none;stroke-width:0.352778" />
    <path
       id="path86"
       d="m 47.114157,86.520684 0.06668,-0.061 -0.05221,-0.0896 -0.0074,0.005 -0.0695,0.0557 v 3.6e-4 l 0.0021,0.003 0.05997,0.0868 z"
       style="fill:none;stroke:#ffffff;stroke-width:0.154869;stroke-linecap:butt;stroke-linejoin:miter;stroke-miterlimit:10;stroke-dasharray:none;stroke-opacity:1" />
    <path
       id="path87"
       d="m 46.48339,86.775034 0.174625,0.0487 0.119592,-0.13582 -0.03493,-0.2159 0.206022,-0.0332 0.04763,-0.16333 -0.101247,-0.16898 0.01482,-0.15099 -0.07197,-0.0632 -0.122414,0.0628 -0.0247,0.17357 -0.110066,0.12136 0.0035,0.25329 -0.12065,0.12206 z"
       style="fill:#132744;fill-opacity:1;fill-rule:nonzero;stroke:#ffffff;stroke-width:0.154869;stroke-linecap:butt;stroke-linejoin:miter;stroke-miterlimit:10;stroke-dasharray:none;stroke-opacity:1" />
    <path
       id="path88"
       d="m 45.300279,86.190414 -0.06068,-0.0529 -0.03598,0.0328 -0.0956,0.0892 -0.0822,0.1644 0.0568,0.21837 0.175683,0.0346 0.03951,-0.11536 0.122061,-0.0889 -0.09948,-0.121 z"
       style="fill:#132744;fill-opacity:1;fill-rule:nonzero;stroke:#ffffff;stroke-width:0.154869;stroke-linecap:butt;stroke-linejoin:miter;stroke-miterlimit:10;stroke-dasharray:none;stroke-opacity:1" />
    <path
       id="path89"
       d="m 58.353479,82.515244 -0.57609,-0.14393 0.0575,-0.54151 -0.41768,-0.44274 0.36053,-0.33549 -0.1658,-0.83855 -0.49953,-0.61207 -0.28046,-1.05869 -0.55739,-0.72707 -0.77964,-0.22296 -0.388056,-0.44344 -1.113014,-0.16898 v -0.61207 l -0.891469,-0.66957 -0.05539,1.05868 0.390172,0.33479 -0.334786,0.44661 -0.722489,-0.1658 -0.445558,-0.50412 -0.445558,0.39229 -0.222956,0.8897 -0.77858,0.0571 -0.334081,-0.44591 -0.947208,-0.27799 -0.278342,-0.7814 -0.555272,-0.44591 v -0.72355 l -0.557742,-0.55809 v -0.7814 l -0.445205,-0.61243 -0.111831,-0.78105 -0.833614,-0.22295 -0.445911,0.38876 -1.335264,0.22366 -0.668513,0.78035 -1.112662,0.27763 -0.167216,-0.6664 -0.38982,-0.16862 0.334081,-0.89253 0.557036,-0.89006 0.167217,-0.83891 -0.278695,-0.38876 v -0.83502 l 0.499886,-0.28046 0.334081,-0.7239 -0.555272,-0.781756 -0.779992,-0.05397 -0.557036,0.558095 -0.66675,-0.334786 -0.278694,-0.78105 0.278694,-0.835731 -1.558572,-0.892528 -0.724253,-0.391936 -0.389467,0.726017 v 0.724253 l 0.413809,0.460022 -0.525639,0.544689 -0.626886,-0.352778 -0.119945,0.528461 0.523875,0.771172 -0.334433,0.335139 -1.056217,-0.781755 -0.334786,-0.835025 h -0.722841 l -0.278342,-1.116189 -1.002594,0.112183 -0.499534,-0.446616 -0.668514,0.838552 0.58032,0.690386 -0.246239,1.14935 H 32.56436 l -1.002594,-1.285875 -0.389467,-1.223786 0.222603,-0.781402 -0.613128,-0.388762 -0.165452,-1.173691 -0.755298,-0.395817 0.108656,0.410986 0.45473,0.590197 -0.770819,0.612775 -0.157339,0.539045 0.811389,1.170164 0.425803,-0.176742 0.136525,0.207786 -0.454378,0.243417 -0.320675,-0.16757 -0.132644,0.410986 -0.343959,-0.01164 -0.168275,0.322791 0.164042,0.736953 0.176389,-0.195791 0.339372,0.510469 -0.342547,0.01905 0.365125,0.41663 -0.10795,0.286103 0.1016,0.397225 -0.512233,-0.331255 -0.0762,0.147815 0.578555,0.45191 -0.0829,0.23389 0.118181,0.18556 0.163336,0.13406 0.256116,-0.18274 0.101953,0.10266 0.04586,-0.2667 0.102305,0.1143 H 31.058 l -0.29845,-0.61102 0.157692,0.0289 -0.111831,-0.28398 0.0829,-0.0145 -0.05715,-0.614893 0.13582,0.271286 0.0064,0.348897 0.121355,0.23424 -0.02364,0.24272 0.217664,0.23107 -0.270933,-0.1196 0.299861,0.41805 0.04057,0.51646 0.305153,0.51576 0.303389,0.25894 0.103717,-0.0642 -0.291395,-0.2861 -0.06562,-0.32279 0.364773,0.28293 0.09807,0.27269 0.328436,0.0416 0.121356,0.24589 0.253294,0.21484 0.286808,-0.0289 0.01411,-0.17886 0.181681,0.002 0.29598,0.1524 0.02963,-0.12206 -0.188736,-0.17145 0.311502,-0.007 0.426509,0.30374 0.03069,0.13124 0.248003,0.13158 0.06456,-0.16157 -0.31997,-0.3563 0.131586,-0.008 0.280106,0.2741 0.18803,-0.0822 -0.03246,-0.15451 0.14358,-0.008 -0.07938,-0.33408 -0.07655,-0.0921 -0.0049,-0.29916 -0.117123,-0.16298 0.08714,-0.17321 0.118886,0.17427 0.01305,0.25329 0.297745,0.36865 0.09596,-0.004 0.01588,-0.1471 -0.265288,-0.23778 -0.08996,-0.9853 0.122061,0.26881 0.179211,0.19862 0.20955,0.50694 -0.03739,0.21766 0.161572,0.0885 0.213783,0.64488 0.240595,0.381 0.02222,0.20355 0.252589,0.20355 -3.53e-4,0.42016 -0.1651,0.0928 0.0441,0.34996 -0.08573,0.19614 0.01376,0.4692 0.142875,0.18803 0.09102,0.23742 -0.502708,0.0286 -0.1143,0.0744 -0.215547,-0.10407 -0.327378,0.25294 -0.33655,0.0639 0.04974,0.46814 0.169333,0.109 0.04586,0.40852 0.141464,0.21484 0.0039,0.28293 0.283634,0.25435 0.135466,0.35666 0.515056,0.60713 0.02646,0.26741 -0.1524,0.22084 0.05468,0.34819 -0.06597,0.0762 0.03492,0.20778 -0.138994,0.0681 -0.317147,0.40605 0.02505,0.23354 -0.131586,0.16828 -0.01305,0.21307 -0.0822,-0.005 -0.112536,0.28716 -0.231775,0.072 0.01023,0.18521 0.201436,0.22366 -0.102305,0.067 0.208492,0.59973 0.329141,0.2159 0.270581,0.46707 0.01693,0.31539 0.271992,0.23283 0.265994,0.80645 0.318911,0.46602 0.34537,0.32244 0.268111,0.16192 0.354189,0.0402 0.137936,-0.25506 0.270228,-0.20214 0.29845,-0.12242 0.02364,-0.22472 -0.126295,-0.15839 0.04092,-0.54187 0.323145,-0.11183 0.377119,0.0497 0.339725,0.4131 0.243417,0.1517 0.333728,-0.12312 0.777875,0.0734 0.107244,-0.16722 -0.603955,-0.32173 0.172508,-0.28928 -0.0755,-0.30233 -0.151694,-0.19262 0.170392,-0.11394 0.199672,0.2353 0.2413,0.10371 -0.0092,0.49495 0.338314,0.36865 0.08431,0.71191 0.557036,0.73272 0.263525,0.52705 0.308328,0.4766 0.02152,0.18556 0.21343,0.0483 0.172861,-0.0434 0.151342,0.17815 -0.239889,0.10866 0.269875,0.16369 0.07514,-0.10619 0.02046,-0.24165 -0.09843,-0.48824 -0.149578,-0.40393 -0.152753,-0.65017 0.173214,0.16898 0.153459,-0.18768 0.122061,0.0998 0.172861,-0.0547 -0.03493,-0.42333 -0.23107,-0.17427 -0.02822,-0.28187 0.188031,0.22472 0.161925,-0.0438 0.0046,-0.14075 0.16263,0.1912 0.04833,0.2219 0.132644,0.0737 0.05186,-0.121 0.192616,0.097 0.08749,-0.11077 -0.03669,-0.25929 0.0448,-0.25859 0.0575,0.21802 0.03563,0.22189 0.192617,0.0829 0.0035,-0.16404 -0.06526,-0.11325 0.135819,-0.31362 -0.09384,-0.19402 0.251884,0.0808 0.05221,0.32562 -0.07655,0.0991 0.304447,0.20567 0.02011,0.15169 0.190852,0.0381 0.178859,0.28434 0.295275,0.042 0.136525,0.13264 -0.02117,0.2473 0.3302,0.0406 0.194733,0.14182 -0.206727,0.0589 -0.204611,0.14147 -0.154517,-0.0621 -0.04974,-0.25824 -0.186619,0.0353 -0.152753,0.41945 0.0508,0.2921 0.02364,0.19685 -0.01552,0.14182 0.05609,0.17357 0.0078,0.16333 0.154869,0.0279 0.0762,0.1016 0.137936,-0.042 -0.07197,0.16651 -0.126295,0.0557 -0.0042,0.1644 0.166864,0.0388 0.263525,-0.12065 0.198261,-0.0219 0.22225,-0.23777 -0.05539,-0.14782 0.07761,-0.066 0.08502,0.0455 0.08749,-0.12241 -0.10795,-0.0406 0.112536,-0.0892 -0.006,-0.11854 -0.09701,-0.0642 0.148167,-0.0688 0.03175,0.16298 0.177094,0.0159 0.110067,-0.13723 -7.06e-4,0.18909 0.129822,0.0406 -0.0635,0.0952 0.04127,0.11783 0.161925,-0.0317 0.05009,-0.16898 0.183797,-0.0702 -0.08749,-0.10054 0.07408,-0.12242 -0.159103,-0.14358 0.0575,-0.21414 0.329141,-0.20461 0.221897,-0.24624 -0.14605,0.3362 -0.147108,0.10195 -0.0053,0.11642 0.160514,0.13194 0.149931,0.19191 -0.157692,0.1136 -0.04657,0.21695 -0.24377,0.0349 -0.111125,0.12347 -0.172508,0.0688 0.02081,0.16299 0.257527,-0.0127 0.156634,-0.15029 0.122766,0.0995 0.178859,-0.1397 0.185208,0.15381 -0.06456,0.10936 0.1778,0.0388 0.14605,-0.13864 0.229658,-0.0716 0.115711,-0.24236 -0.161219,-0.16545 0.06138,-0.15452 0.201083,0.0109 0.225778,-0.14147 -0.08114,0.23742 0.06879,0.16193 -0.09984,0.12241 0.07549,0.0896 0.287867,-0.10972 0.14358,-0.15804 0.244828,-0.0155 0.03951,-0.14323 0.258234,-0.001 0.293864,-0.20356 -0.122414,-0.10018 0.09701,-0.145 0.106186,-0.007 0.04763,-0.17639 0.126294,0.15557 0.03069,-0.072 0.269522,-0.0138 0.0099,-0.24871 0.186266,-0.0325 -0.06032,-0.24412 0.176036,0.2025 0.05715,0.19508 0.280812,-0.002 -0.02364,-0.23353 0.119239,-0.16087 -0.274108,-0.0907 0.338667,-0.24236 0.198261,-0.0222 0.09772,-0.14499 0.227895,-0.1083 -0.03528,-0.44239 0.167569,0.49389 0.125942,0.15946 0.0049,0.29351 0.16263,-0.0205 0.176037,-0.45614 0.246238,-0.17992 0.207786,-0.2794 0.200378,-0.2226 0.09842,0.0833 -0.0508,0.11113 -0.128411,0.0138 -0.09984,0.16298 0.0441,0.24236 -0.324203,0.1711 0.14217,0.2233 0.310092,0.0117 -0.107245,0.41768 0.249414,0.34608 0.03528,0.63994 0.121003,0.23283 0.18168,-0.36512 0.427567,-0.0857 0.306211,-0.31327 -0.264583,-0.23248 0.303036,-0.009 0.386644,-0.15099 0.232481,-0.24412 0.242711,-0.17709 0.308684,-0.37183 0.0885,0.27058 0.20108,-0.0272 0.18274,-0.33479 0.0646,0.14958 0.25435,-0.0716 -0.0102,-0.33231 0.22754,0.28328 0.42228,-0.25365 0.2413,0.0512 0.01,-0.0938 -0.24589,-0.17321 -0.0557,-0.1838 0.22049,-0.20955 0.0903,-0.32808 -0.2854,-0.23107 0.40534,0.15981 0.0307,0.1718 0.34714,0.18345 -0.20109,0.27622 7.1e-4,0.16863 -0.0737,0.0741 -0.0201,0.1524 0.24306,-0.0413 0.133,0.0716 0.28399,-0.34184 0.31291,-0.0815 0.46143,-0.4692 z"
       style="fill:#132744;fill-opacity:1;fill-rule:nonzero;stroke:#ffffff;stroke-width:0.154869;stroke-linecap:butt;stroke-linejoin:miter;stroke-miterlimit:10;stroke-dasharray:none;stroke-opacity:1" />
    <path
       id="path90"
       d="m 49.03609,95.332544 0.01834,0.0183 -0.0071,0.0222 0.100189,0.10089 0.116064,-0.03 0.0049,-0.13053 -0.01305,-0.005 0.0011,-0.036 -0.180269,-0.0713 z"
       style="fill:#132744;fill-opacity:1;fill-rule:nonzero;stroke:none;stroke-width:0.352778" />
    <path
       id="path91"
       d="m 49.147673,95.473794 0.116064,-0.03 0.0046,-0.13017 -0.01305,-0.005 0.0014,-0.036 -0.180269,-0.0709 -0.04022,0.13088 0.01799,0.0183 -0.0067,0.0226 z"
       style="fill:none;stroke:#ffffff;stroke-width:0.154869;stroke-linecap:butt;stroke-linejoin:miter;stroke-miterlimit:10;stroke-dasharray:none;stroke-opacity:1" />
    <path
       id="path92"
       d="m 49.025896,96.453004 0.07303,-0.14393 0.07796,-0.0991 -0.02011,-0.0318 0.0085,-0.0106 -0.04621,-0.073 0.05574,-0.1076 -0.02505,-0.0159 0.01341,-0.0261 -0.08361,-0.0529 -0.04057,-0.10265 -0.08996,0.085 -0.130175,-0.0258 -0.02646,0.15311 -0.115005,0.0416 -0.01164,0.20073 0.0127,0.0109 -0.0021,0.0314 0.111125,0.097 0.04198,0.13935 0.100541,-0.0998 z"
       style="fill:#132744;fill-opacity:1;fill-rule:nonzero;stroke:#ffffff;stroke-width:0.154869;stroke-linecap:butt;stroke-linejoin:miter;stroke-miterlimit:10;stroke-dasharray:none;stroke-opacity:1" />
    <path
       id="path93"
       d="m 49.209657,96.621694 0.137231,-0.0681 0.04551,-0.236 -0.01905,-0.005 0.0071,-0.0374 -0.07126,-0.0198 -0.06244,0.12136 -0.09419,0.0145 -0.131939,0.14923 -0.136525,0.0794 0.02223,0.0363 -0.01094,0.006 0.03951,0.0653 0.188031,0.0159 z"
       style="fill:#132744;fill-opacity:1;fill-rule:nonzero;stroke:#ffffff;stroke-width:0.154869;stroke-linecap:butt;stroke-linejoin:miter;stroke-miterlimit:10;stroke-dasharray:none;stroke-opacity:1" />
    <path
       id="path94"
       d="m 49.813153,96.855304 0.0081,-0.008 -0.128411,-0.21484 -0.05398,0.0988 -0.163336,-0.006 -0.05468,0.0758 -0.161219,0.043 -0.05856,0.20285 -0.125589,0.0639 0.04621,0.20955 0.0025,0.002 0.0092,0.0427 0.196145,0.14182 0.184502,-0.0469 0.05398,-0.084 0.06315,0.0903 0.13723,-0.0529 0.02293,-0.24977 -0.01411,-0.0258 0.0014,-0.0176 -0.05962,-0.11042 0.115006,-0.11924 z"
       style="fill:#132744;fill-opacity:1;fill-rule:nonzero;stroke:#ffffff;stroke-width:0.154869;stroke-linecap:butt;stroke-linejoin:miter;stroke-miterlimit:10;stroke-dasharray:none;stroke-opacity:1" />
    <path
       id="path95"
       d="m 48.42522,97.959854 -0.09772,0.0236 h 3.52e-4 -3.52e-4 l 0.03669,0.0388 -0.02646,0.006 0.08643,0.0896 0.04057,-0.12065 -0.02822,0.007 0.01764,-0.0522 z"
       style="fill:#132744;fill-opacity:1;fill-rule:nonzero;stroke:none;stroke-width:0.352778" />
    <path
       id="path96"
       d="m 48.424196,98.118424 0.04022,-0.12065 -0.02787,0.007 0.01764,-0.0519 -0.02893,0.007 -0.09807,0.0233 h 3.53e-4 l -3.53e-4,3.5e-4 0.03704,0.0388 -0.02681,0.006 z"
       style="fill:none;stroke:#ffffff;stroke-width:0.154869;stroke-linecap:butt;stroke-linejoin:miter;stroke-miterlimit:10;stroke-dasharray:none;stroke-opacity:1" />
    <path
       id="path97"
       d="m 47.551495,97.155274 -0.01588,-0.025 0.0067,-0.0187 -0.127353,-0.2032 -0.08431,-0.0194 -0.07303,0.13582 -0.03387,0.25753 -0.131586,0.16051 -0.0025,0.15276 h 0.0092 l -7.05e-4,0.0445 0.139347,0.002 0.0039,-0.1524 0.228953,-0.10478 z"
       style="fill:#132744;fill-opacity:1;fill-rule:nonzero;stroke:#ffffff;stroke-width:0.154869;stroke-linecap:butt;stroke-linejoin:miter;stroke-miterlimit:10;stroke-dasharray:none;stroke-opacity:1" />
    <path
       id="path98"
       d="m 48.553668,96.398564 -0.08326,-0.22013 -0.119238,-0.0515 0.07091,-0.20355 -0.14605,-0.0991 0.05045,-0.15381 h 0.211314 l 0.06738,0.17215 0.136877,-0.0642 0.152753,0.0134 0.07585,-0.12135 -0.09102,-0.17181 -0.08714,-0.30938 -0.03457,-0.4124 -0.223661,-0.23354 -0.05009,-0.26599 -0.09596,-0.25365 0.04586,-0.23636 0.159809,-0.091 0.182386,0.11712 0.01623,-0.12735 0.207786,-0.0593 -0.232128,-0.16334 -0.01199,-0.23354 -0.151694,0.0198 -0.05927,0.21413 -0.15628,-0.0727 -0.01835,-0.35243 -0.160514,-0.13229 -0.0011,-0.24588 -0.210961,0.0226 -0.108303,0.145 -0.241653,0.0977 -0.309386,0.33372 -0.212019,0.42122 -0.215547,0.33055 0.02223,0.19685 -0.118534,0.18274 -0.282575,0.63853 -0.02222,0.43603 -0.135113,0.11254 -0.03175,0.26105 -0.2921,0.46109 0.09208,0.40569 -0.07267,0.15875 -0.06209,0.3556 -0.225425,0.18591 -0.07761,0.28575 0.121003,0.27305 0.276225,0.14111 0.166864,-0.16368 0.03493,-0.22296 0.131586,-0.1718 0.117475,0.0183 0.263878,-0.32173 -0.01023,-0.18592 0.03246,-0.28398 0.235655,-0.17886 0.135467,0.11042 0.164042,0.0162 0.253294,-0.0864 0.09419,-0.22684 0.183091,-0.0804 0.285398,0.0907 0.06668,0.1464 0.09984,-0.0967 z"
       style="fill:#132744;fill-opacity:1;fill-rule:nonzero;stroke:#ffffff;stroke-width:0.154869;stroke-linecap:butt;stroke-linejoin:miter;stroke-miterlimit:10;stroke-dasharray:none;stroke-opacity:1" />
    <path
       id="path99"
       d="m 45.290543,91.385774 -0.07726,-0.13441 3.52e-4,-0.20108 0.246945,-0.21343 0.265994,-0.25859 0.03034,-0.51823 0.112184,-0.0896 v -0.21202 l 0.05891,-0.22543 -0.07655,-0.11253 -0.172156,0.0543 -0.04339,-0.12488 0.129823,0.003 0.08749,-0.11077 -0.138642,-0.19261 -0.201789,-0.0342 0.257175,-0.23919 -0.02893,-0.0921 -0.214136,0.15275 -0.104069,0.0402 -0.178153,0.16263 -0.105833,0.21943 0.05327,0.31467 0.132644,0.073 0.127353,0.19332 -0.157339,0.11254 -0.02999,0.32173 -0.279047,0.248 -0.03704,-0.25576 0.148873,-0.043 0.06456,-0.34431 -0.261056,-0.0314 -0.163336,0.21767 -0.03069,0.29492 0.10548,0.20849 -0.05997,0.19156 -0.156281,-0.0508 -0.184855,0.23389 -0.03069,0.29492 0.178506,0.061 -0.04022,0.33973 0.118181,0.0296 0.07444,-0.15522 0.13088,0.0282 -0.06597,0.0843 0.09349,0.21696 0.145697,-0.12453 0.202142,0.049 0.07197,0.25435 0.160867,-0.29245 0.05115,-0.3549 -0.131939,-0.0515 z"
       style="fill:#132744;fill-opacity:1;fill-rule:nonzero;stroke:#ffffff;stroke-width:0.154869;stroke-linecap:butt;stroke-linejoin:miter;stroke-miterlimit:10;stroke-dasharray:none;stroke-opacity:1" />
    <path
       id="path100"
       d="m 44.696217,88.872824 0.130528,-0.41804 -0.04022,-0.30304 0.09384,-0.19297 0.03281,-0.27234 -0.09102,-0.17216 0.153458,0.0395 -0.01552,-0.29315 0.182386,-0.0921 -0.08996,-0.13476 -3.53e-4,-0.22296 -0.121356,-0.0776 v -0.21237 l -0.184503,0.0363 0.0021,0.26811 -0.111478,0.11148 0.07091,0.22083 -0.128059,0.019 -0.208844,0.2339 -0.213078,-0.0367 -0.09031,0.28892 -0.168275,0.12524 0.08678,0.0903 -0.207433,0.0702 0.06491,0.10196 0.15875,-0.0684 0.176389,0.001 0.106892,-0.19368 -0.01023,0.23495 -0.08608,0.14782 -0.07585,-0.1016 -0.197555,0.0328 0.06597,0.1397 -0.163336,-0.006 -0.03246,-0.13688 -0.149577,0.0317 -0.02611,0.16475 -0.07973,0.0511 0.08079,0.18309 0.151695,-0.009 0.06526,0.11642 -0.103364,0.0631 0.104775,0.18239 0.01058,0.21167 0.07444,0.27693 0.09807,0.0893 -0.06279,0.13229 0.122414,0.0857 0.147814,-0.0762 -0.03669,-0.24448 0.113947,-0.26423 -0.05362,0.28434 0.08325,0.0307 0.03528,-0.20214 0.107245,-0.18203 z"
       style="fill:#132744;fill-opacity:1;fill-rule:nonzero;stroke:#ffffff;stroke-width:0.154869;stroke-linecap:butt;stroke-linejoin:miter;stroke-miterlimit:10;stroke-dasharray:none;stroke-opacity:1" />
    <path
       id="path101"
       d="m 46.946623,86.903374 -0.105481,-0.0293 -0.100894,0.0621 -0.07796,0.0289 0.01693,0.11359 0.232834,0.0469 0.203905,-0.0586 -0.05539,-0.17075 0.100542,-0.0628 0.02505,-0.17392 -0.13723,0.009 z"
       style="fill:#132744;fill-opacity:1;fill-rule:nonzero;stroke:#ffffff;stroke-width:0.154869;stroke-linecap:butt;stroke-linejoin:miter;stroke-miterlimit:10;stroke-dasharray:none;stroke-opacity:1" />
    <path
       id="path102"
       d="m 51.425066,10.677699 -0.390172,0.222956 -0.332317,0.611011 -0.779991,0.613126 -0.111831,0.835378 -0.612775,0.611364 0.167217,1.057628 h 0.724252 l 0.334434,0.667808 0.667102,0.222956 -0.167216,1.168399 0.779991,-0.4445 0.668514,0.333023 1.1684,0.278341 -0.11183,1.002948 0.668161,-0.167217 0.947561,0.278694 0.05398,0.889706 -1.279525,0.222603 -0.278342,0.557741 0.445559,0.500592 0.724252,0.167569 0.276931,0.499886 -0.388408,1.002595 0.111477,1.168752 -0.503061,0.501298 -0.388408,1.223786 -1.391003,0.05539 -0.334433,-0.778228 -1.002595,-0.668161 -1.28023,0.889706 -0.945444,-0.05574 -0.222603,-0.611364 -1.114425,0.222955 -0.334081,-0.222955 0.05574,-0.779992 -0.555625,-0.167216 -0.111478,0.501297 -0.891469,-0.05539 -0.722489,-0.612775 -0.445558,0.389819 -0.779992,0.05574 -0.722489,0.501297 -0.724605,0.111831 -0.612775,-0.947209 -1.056922,0.167217 -0.222603,0.835378 -1.056922,0.445558 -0.278695,-0.7239 -0.390172,0.833967 -0.722489,0.222603 -1.22555,1.114424 -0.167216,0.778581 -1.279878,0.167217 -0.724253,0.445558 -1.391002,-0.891822 -0.05574,-0.777875 -0.778228,-0.501297 -0.557389,0.277989 0.05609,0.945797 -0.668867,0.445911 -0.166864,1.780822 -1.001539,-0.889706 -0.891116,0.278695 -0.276931,0.443794 -0.390172,-0.222603 0.05609,-0.778227 0.389467,-0.445911 -0.501297,-0.724253 -0.946856,-0.165453 v -0.557389 l 0.668514,-0.445558 -0.724253,-0.278694 -0.77858,-0.611364 v -0.612775 l -0.835378,-0.779639 v -0.833967 l 0.612775,-0.445558 -0.05609,-0.668867 -0.835378,-0.945444 -0.111478,-0.668514 1.892653,-1.725436 -0.05574,-1.001183 -1.1684,0.111478 -1.447094,-1.447095 h -1.169812 l -0.778227,-1.002594 h -0.668514 l -0.555625,-0.334434 -0.111478,-0.776816 2.973564,0.06738 0.162278,-2.114549 9.06921,0.07902 -0.280458,0.313972 0.03739,0.335139 0.171098,0.210255 -0.181681,0.327378 0.0053,0.456846 0.221544,0.406047 0.129117,-0.166863 0.369005,0.200025 0.303389,0.0822 0.666397,0.202494 1.176162,0.77082 0.85478,0.388761 0.190853,0.566914 0.07232,0.663927 -0.10795,0.13335 h -0.37853 l -0.108303,0.185914 0.249414,0.204611 0.01975,0.355953 0.203906,0.109361 -0.05009,0.182033 0.269522,0.203553 -0.206375,0.189442 -0.636764,-0.341842 -0.533753,0.406753 0.08043,0.373592 0.289984,0.221544 -0.223309,0.271639 0.223309,-0.271639 -0.289984,-0.221544 -0.08043,-0.373592 0.533753,-0.406753 0.267405,0.143934 0.369359,0.197908 0.206375,-0.189442 -0.269522,-0.203553 0.05009,-0.182033 -0.203906,-0.109361 -0.01975,-0.355953 -0.249414,-0.204611 0.108303,-0.185914 h 0.37853 l 0.10795,-0.13335 -0.07232,-0.663927 0.351719,-0.09842 -0.131233,-0.211667 0.1905,-0.168628 0.04551,-0.262114 0.264936,0.125236 -0.0194,-0.337608 -0.229659,-0.224719 -0.01905,-0.227189 0.744361,0.405341 0.265289,-0.06773 -0.06844,-0.340078 0.822678,0.166864 0.151342,0.196145 0.281164,-0.02222 0.148519,0.27693 0.748947,-0.214841 0.162631,-0.294923 0.283633,0.167217 0.288925,-0.175683 -0.07937,-0.443089 0.151694,-0.03669 0.142875,0.07161 0.236009,-0.07408 0.601839,-0.230363 0.304094,-0.255059 0.313267,0.261056 0.346075,0.15875 0.464961,0.491772 0.387703,0.197556 0.237066,-0.0321 0.01658,-0.418747 -0.25012,-0.224367 0.06209,-0.321381 V 12.17596 l 0.340431,-0.316441 0.196497,-0.408869 0.846667,-0.522817 0.614891,-0.01446 0.471311,0.212019 0.686506,-0.116064 0.582789,0.106892 0.303741,-0.274814 0.327025,-0.177095 0.626534,0.165806 -0.120298,-0.371475 0.817034,0.03351 1.24848,-0.424392 z"
       style="fill:#cfdd3d;fill-opacity:1;fill-rule:nonzero;stroke:#ffffff;stroke-width:0.289278;stroke-linecap:butt;stroke-linejoin:miter;stroke-miterlimit:10;stroke-dasharray:none;stroke-opacity:1" />
  </g>
</svg>
